<?xml version="1.0"?>
<svg width="270" height="180" xmlns="http://www.w3.org/2000/svg" xmlns:svg="http://www.w3.org/2000/svg" enable-background="new 0 0 344.297 190.305" version="1.1" xml:space="preserve">
 <g class="layer">
  <title>Layer 1</title>
  <g id="svg_1">
   <g id="svg_2">
    <g id="svg_3">
     <g id="svg_4">
      <path d="m268.73,90.17c-0.21,-2.54 -0.55,-5.06 -1,-7.57c-0.45,-2.55 -0.99,-5.07 -1.81,-7.53c-1.45,-4.34 -3.57,-8.49 -6.23,-12.2c-1,-1.4 -2.09,-2.77 -3.39,-3.9c-0.63,-0.55 -1.57,-1.29 -2.5,-1.45c0.02,-0.03 0.02,-0.06 0.04,-0.1c0.18,-0.67 -0.1,-1.45 -0.36,-2.05c-0.35,-0.8 -0.81,-1.53 -1.31,-2.24c-0.47,-0.67 -0.99,-1.31 -1.5,-1.95c-0.15,-0.19 -0.31,-0.38 -0.47,-0.58c-0.02,-0.03 -0.08,-0.1 -0.1,-0.13c-0.06,-0.08 -0.11,-0.15 -0.18,-0.23c-0.1,-0.13 -0.19,-0.25 -0.29,-0.38c-0.2,-0.25 -0.4,-0.5 -0.6,-0.74c-3.49,-4.28 -7.6,-8.02 -11.87,-11.49c-4.19,-3.4 -8.56,-6.59 -13.17,-9.39c-4.67,-2.84 -9.6,-5.32 -14.78,-7.07c-1.26,-0.43 -2.53,-0.81 -3.81,-1.15c-1.29,-0.33 -2.61,-0.66 -3.94,-0.78c-1.09,-0.1 -2.19,-0.05 -3.26,0.19c0.2,-0.12 0.39,-0.24 0.58,-0.39c0.26,-0.2 0.37,-0.35 0.3,-0.68c-0.09,-0.41 -0.26,-0.79 -0.48,-1.15c-0.49,-0.79 -1.18,-1.43 -1.9,-2c-1.62,-1.26 -3.54,-2.15 -5.41,-2.98c-1.93,-0.85 -3.86,-1.73 -5.81,-2.54c-2.82,-1.17 -5.71,-2.16 -8.63,-3.04c-2.9,-0.87 -5.83,-1.62 -8.76,-2.33c-3.11,-0.76 -6.23,-1.44 -9.4,-1.91c-3.67,-0.55 -7.38,-0.87 -11.09,-1.01c-0.79,-0.1 -1.6,-0.18 -2.4,-0.23c-3.02,-0.19 -6.06,-0.2 -9.09,-0.14c-2.62,0.05 -5.24,0.16 -7.86,0.3c-5.66,-0.09 -11.34,0.23 -16.95,1.08c-3.17,0.47 -6.29,1.15 -9.4,1.91c-2.94,0.71 -5.87,1.47 -8.76,2.33c-2.92,0.88 -5.82,1.87 -8.64,3.04c-1.95,0.8 -3.88,1.68 -5.8,2.54c-1.87,0.83 -3.8,1.72 -5.41,2.98c-0.72,0.57 -1.41,1.21 -1.9,2c-0.22,0.35 -0.39,0.74 -0.48,1.15c-0.07,0.33 0.03,0.48 0.3,0.68c0.18,0.14 0.38,0.27 0.58,0.39c-1.07,-0.24 -2.17,-0.3 -3.26,-0.19c-1.33,0.12 -2.65,0.45 -3.94,0.78c-1.28,0.34 -2.55,0.72 -3.81,1.15c-5.18,1.75 -10.1,4.23 -14.78,7.07c-4.61,2.8 -8.98,5.99 -13.17,9.39c-4.27,3.47 -8.38,7.21 -11.87,11.49c-0.2,0.24 -0.4,0.49 -0.6,0.74c-0.1,0.13 -0.19,0.25 -0.29,0.38c-0.06,0.08 -0.12,0.15 -0.18,0.23c-0.02,0.03 -0.07,0.1 -0.1,0.13c-0.15,0.19 -0.31,0.39 -0.47,0.58c-0.51,0.64 -1.03,1.28 -1.5,1.95c-0.5,0.71 -0.96,1.44 -1.31,2.24c-0.26,0.6 -0.54,1.39 -0.36,2.05c0.02,0.03 0.02,0.06 0.04,0.1c-0.93,0.16 -1.87,0.9 -2.5,1.45c-1.3,1.13 -2.39,2.5 -3.39,3.9c-2.66,3.71 -4.77,7.86 -6.23,12.2c-0.82,2.46 -1.36,4.98 -1.81,7.53c-0.45,2.5 -0.79,5.03 -1,7.57c-0.43,5.09 -0.35,10.31 0.87,15.29c0.4,1.65 0.92,3.3 1.57,4.87c0.3,0.73 0.63,1.48 1.09,2.13c0.35,0.51 0.83,1.06 1.48,1.19c0.01,0.01 0.02,0.01 0.03,0.01c0.01,0.02 0.02,0.02 0.04,0.03c0,0.02 -0.01,0.06 -0.01,0.08c-0.02,0.13 -0.03,0.26 -0.06,0.39c-0.02,0.06 -0.03,0.13 -0.06,0.18c-0.02,0.03 -0.03,0.07 -0.04,0.1c-0.03,0.09 -0.03,0.18 0.01,0.26c0,0.01 0.01,0.01 0.01,0.02c-0.71,1.47 -0.07,3.87 0.35,5.2c0.39,1.21 0.92,2.38 1.5,3.5c0.97,1.87 2.12,3.65 3.38,5.34c2.38,3.19 5.15,6.15 8.21,8.7c2.86,2.4 6.07,4.39 9.55,5.77c1.97,0.79 4.02,1.36 6.11,1.71c2.02,0.35 4.18,0.55 6.13,-0.17c-0.01,0.15 0.08,0.29 0.35,0.31c2.06,0.18 3.93,1.33 5.92,1.83c2.46,0.62 4.9,1.19 7.41,1.56c2.42,0.35 4.85,0.61 7.29,0.66c2.25,0.05 4.45,-0.14 6.68,-0.48c1.61,-0.26 3.23,-0.5 4.79,-0.98c1.52,-0.47 3.13,-1.13 4.12,-2.46c2.29,-3.08 -0.56,-6.84 -2.59,-9.18c-1.39,-1.59 -2.86,-3.11 -4.22,-4.72c-0.63,-0.73 -1.2,-1.47 -1.64,-2.33c-0.37,-0.73 -0.67,-1.57 -1.24,-2.17c-0.09,-0.09 -0.17,-0.18 -0.26,-0.25c0.87,-0.03 1.69,-0.89 2.14,-1.53c0.56,-0.82 0.89,-1.8 1.08,-2.76c0.22,-1.15 0.01,-2.23 -0.35,-3.33c-0.18,-0.55 -0.41,-1.1 -0.6,-1.65c-0.02,-0.07 -0.04,-0.14 -0.06,-0.21c1.35,0.8 3.43,0.26 4.81,-0.48c0.91,-0.49 1.68,-1.14 2.43,-1.85c0.88,-0.84 1.72,-1.78 2.35,-2.83c0.33,-0.55 0.62,-1.14 0.74,-1.77c0.01,-0.05 0.02,-0.1 0.03,-0.17c0.08,0.08 0.16,0.16 0.25,0.23c0.81,0.67 1.83,0.96 2.86,1.08c2.21,0.26 4.5,-0.36 6.6,-1c3.5,-1.07 7.09,-2.32 10.2,-4.3c0.86,-0.55 1.68,-1.19 2.29,-2.01c0.11,-0.15 0.22,-0.32 0.31,-0.5c0.16,0.22 0.35,0.43 0.54,0.63c1.1,1.12 2.78,1.36 4.23,1.76c3.23,0.89 6.56,1.52 9.9,1.73c2.33,0.14 4.65,0.41 6.99,0.51c3.36,0.16 6.74,0.16 10.11,0.09c0.04,0 0.09,-0.01 0.13,-0.01c0.04,0 0.09,0.01 0.13,0.01c3.37,0.07 6.75,0.07 10.12,-0.09c2.33,-0.1 4.65,-0.37 6.98,-0.51c3.36,-0.2 6.8,-0.34 10.05,-1.29c1.48,-0.43 2.98,-1.08 4.09,-2.19c0.18,-0.19 0.37,-0.4 0.53,-0.63c0.09,0.18 0.2,0.35 0.31,0.5c0.61,0.83 1.44,1.47 2.3,2.01c3.1,1.98 6.7,3.23 10.2,4.3c2.09,0.64 4.39,1.26 6.6,1c1.03,-0.12 2.05,-0.41 2.86,-1.08c0.09,-0.07 0.17,-0.15 0.25,-0.23c0.01,0.06 0.02,0.12 0.02,0.17c0.12,0.63 0.41,1.23 0.74,1.77c0.64,1.05 1.47,1.99 2.35,2.83c0.75,0.71 1.52,1.36 2.44,1.85c1.38,0.75 3.45,1.28 4.81,0.48c-0.02,0.06 -0.05,0.14 -0.07,0.21c-0.19,0.55 -0.42,1.09 -0.6,1.65c-0.35,1.1 -0.56,2.18 -0.34,3.33c0.18,0.96 0.51,1.94 1.08,2.75c0.45,0.65 1.28,1.51 2.15,1.53c-0.09,0.08 -0.18,0.17 -0.26,0.26c-0.58,0.59 -0.87,1.44 -1.24,2.17c-0.43,0.86 -1.01,1.6 -1.63,2.33c-1.36,1.61 -2.84,3.13 -4.23,4.72c-2.02,2.33 -4.89,6.1 -2.59,9.18c0.99,1.32 2.6,1.99 4.12,2.46c1.56,0.48 3.18,0.72 4.78,0.98c2.22,0.35 4.43,0.53 6.68,0.48c2.44,-0.05 4.87,-0.3 7.29,-0.66c2.24,-0.33 4.43,-0.83 6.62,-1.36c0.02,-0.04 0.06,-0.07 0.13,-0.09c0.73,-0.15 1.44,-0.35 2.15,-0.59c0.89,-0.33 1.78,-0.71 2.68,-0.99c0.34,-0.13 0.67,-0.26 1.01,-0.41c0.29,-0.11 0.58,-0.26 0.89,-0.27c0.38,-0.02 0.76,0.14 1.13,0.27c1.69,0.38 3.48,0.2 5.18,-0.09c2.09,-0.36 4.14,-0.93 6.11,-1.72c3.48,-1.37 6.68,-3.37 9.56,-5.77c3.05,-2.54 5.82,-5.51 8.2,-8.7c1.27,-1.68 2.41,-3.47 3.38,-5.34c0.59,-1.12 1.12,-2.29 1.51,-3.5c0.43,-1.33 1.07,-3.72 0.35,-5.2c0,-0.01 0.01,-0.01 0.02,-0.02c0.04,-0.09 0.03,-0.18 0.01,-0.26c-0.02,-0.03 -0.03,-0.07 -0.05,-0.1c-0.02,-0.06 -0.04,-0.12 -0.06,-0.18c-0.02,-0.13 -0.04,-0.26 -0.05,-0.39c-0.01,-0.02 -0.01,-0.05 -0.02,-0.08c0.02,-0.01 0.04,-0.02 0.05,-0.03c0.01,0 0.02,0 0.02,0c0.64,-0.14 1.12,-0.67 1.48,-1.2c0.45,-0.65 0.79,-1.4 1.09,-2.13c0.64,-1.57 1.17,-3.22 1.57,-4.87c1.21,-4.97 1.29,-10.2 0.87,-15.29z" fill="#B46E39" id="svg_5"/>
      <path d="m266.48,106.21c-0.4,1.44 -0.87,2.89 -1.48,4.24c-0.29,0.65 -0.63,1.31 -1.08,1.85c-0.17,0.2 -0.38,0.41 -0.63,0.52c-0.09,0.04 -0.18,0.06 -0.26,0.06c-0.09,0 -0.11,-0.01 -0.18,-0.04c-1.03,-0.43 -0.33,0.74 -0.07,1.03c-0.12,-0.08 -0.25,-0.17 -0.39,-0.16c-0.14,0.01 -0.28,0.14 -0.23,0.28c0.02,0.05 0.06,0.08 0.1,0.12c0.42,0.37 0.76,0.84 0.89,1.39c0.41,1.69 -0.62,3.95 -1.25,5.47c-1.35,3.23 -3.42,6.23 -5.63,8.93c-2.38,2.89 -5.03,5.59 -7.99,7.87c-4.18,3.23 -9.19,5.59 -14.47,6.43c-1.91,0.3 -3.88,0.37 -5.69,-0.43c-0.22,-0.1 -0.56,-0.09 -0.63,0.2c-0.03,0.11 -0.01,0.22 0.05,0.32c-0.37,0.02 -0.72,0.08 -1.08,0.18c-1.02,0.26 -2,0.68 -2.98,1.05c-1.06,0.4 -2.15,0.65 -3.24,0.92c-7.77,1.93 -17.59,3.24 -25.23,0.05c-1.33,-0.55 -2.58,-1.44 -2.74,-2.99c-0.19,-1.69 0.77,-3.32 1.73,-4.64c1.66,-2.29 4.36,-4.08 5.79,-6.47c1.11,-1.84 2.13,-3.72 2.93,-5.72c-0.32,-0.12 -0.62,-0.28 -0.89,-0.5c-0.98,-0.76 -1.62,-1.94 -1.97,-3.11c-0.22,-0.74 -0.36,-1.59 -0.24,-2.38c-0.17,-1.76 0.26,-3.51 1.24,-4.98c-0.05,-0.22 -0.43,-0.42 -0.59,-0.22c-0.67,0.92 -1.73,1.27 -2.83,1.09c-1.85,-0.29 -3.19,-1.32 -4.42,-2.57c-0.74,-0.74 -1.44,-1.53 -1.98,-2.44c-0.22,-0.37 -0.41,-0.77 -0.49,-1.2c-0.07,-0.4 0.09,-0.81 -0.06,-1.19c-0.05,-0.12 -0.14,-0.23 -0.26,-0.3c0.21,-0.48 0.34,-0.99 0.42,-1.52c0.01,-0.11 -0.21,-0.29 -0.27,-0.15c-0.5,1.05 -1.28,1.96 -2.31,2.5c-0.95,0.51 -2.04,0.63 -3.1,0.62c-1.98,-0.03 -3.94,-0.61 -5.82,-1.22c-0.06,-0.02 -0.22,-0.07 -0.25,-0.08c-0.11,-0.03 -0.22,-0.07 -0.34,-0.11c-0.33,-0.1 -0.66,-0.22 -0.98,-0.33c-0.83,-0.29 -1.66,-0.59 -2.48,-0.91c-0.95,-0.38 -1.89,-0.78 -2.82,-1.23c-0.89,-0.43 -1.62,-0.81 -2.42,-1.35c-0.18,-0.13 -0.38,-0.26 -0.55,-0.39c-0.09,-0.06 -0.17,-0.13 -0.25,-0.19c-0.02,-0.02 -0.1,-0.09 -0.13,-0.11c-0.15,-0.13 -0.3,-0.26 -0.43,-0.41c-0.06,-0.06 -0.11,-0.11 -0.16,-0.17c-0.02,-0.03 -0.05,-0.06 -0.07,-0.09c-0.01,-0.01 -0.01,-0.02 -0.02,-0.02c-0.1,-0.14 -0.18,-0.27 -0.26,-0.42c-0.01,-0.02 -0.02,-0.06 -0.03,-0.08c-0.02,-0.06 -0.05,-0.13 -0.06,-0.2c-0.01,-0.02 -0.01,-0.02 -0.01,-0.03c-0.01,-0.04 -0.01,-0.07 -0.02,-0.11c-0.01,-0.06 -0.02,-0.12 -0.03,-0.18c-0.02,-0.14 -0.03,-0.28 -0.04,-0.43c0,-0.14 -0.11,-0.3 -0.25,-0.41c0,-0.06 0,-0.13 0,-0.19c-0.23,-0.4 -0.45,-0.81 -0.64,-1.23c-0.02,0.27 -0.05,0.54 -0.12,0.8c-0.25,0.9 -0.72,1.62 -1.34,2.21c-0.2,0.13 -0.4,0.23 -0.64,0.35c-0.84,0.38 -1.75,0.62 -2.66,0.81c-1.88,0.4 -3.79,0.65 -5.67,1.01c-3.12,0.6 -6.29,0.92 -9.47,1.12c-3.23,0.21 -6.47,0.35 -9.7,0.46c-0.75,0.02 -1.5,0.04 -2.25,0.06c-0.75,-0.02 -1.5,-0.03 -2.25,-0.06c-3.23,-0.11 -6.48,-0.25 -9.7,-0.46c-3.18,-0.2 -6.35,-0.52 -9.47,-1.12c-1.89,-0.36 -3.8,-0.61 -5.67,-1.01c-0.91,-0.19 -1.81,-0.43 -2.66,-0.81c-0.24,-0.11 -0.44,-0.22 -0.64,-0.35c-0.61,-0.59 -1.08,-1.31 -1.34,-2.21c-0.09,-0.33 -0.13,-0.68 -0.14,-1.02c0,-0.02 -0.01,-0.05 -0.02,-0.06c-0.16,0.87 -0.46,1.69 -0.89,2.44c0,0.03 0,0.06 -0.01,0.1c-0.01,0.06 -0.02,0.12 -0.03,0.18c0,0.04 -0.01,0.07 -0.02,0.11c0,0.01 0,0.02 -0.01,0.03c-0.02,0.07 -0.04,0.14 -0.06,0.2c-0.01,0.02 -0.02,0.06 -0.03,0.08c-0.08,0.14 -0.17,0.28 -0.26,0.42c-0.01,0 -0.01,0.01 -0.02,0.02c-0.02,0.02 -0.05,0.06 -0.07,0.09c-0.05,0.06 -0.1,0.11 -0.16,0.17c-0.14,0.14 -0.28,0.28 -0.43,0.41c-0.02,0.02 -0.1,0.1 -0.13,0.11c-0.08,0.06 -0.16,0.13 -0.25,0.19c-0.18,0.14 -0.37,0.26 -0.55,0.39c-0.8,0.54 -1.53,0.92 -2.42,1.35c-0.92,0.45 -1.87,0.85 -2.82,1.23c-0.81,0.32 -1.64,0.63 -2.47,0.91c-0.32,0.11 -0.65,0.22 -0.98,0.33c-0.11,0.04 -0.22,0.08 -0.34,0.11c-0.02,0.01 -0.19,0.06 -0.25,0.08c-1.88,0.61 -3.84,1.19 -5.82,1.21c-1.06,0.02 -2.14,-0.1 -3.1,-0.61c-0.9,-0.47 -1.61,-1.23 -2.11,-2.11c0,0.41 -0.02,0.82 -0.08,1.23c0.01,0.02 0.02,0.03 0.02,0.05c-0.02,0.01 -0.02,0.02 -0.03,0.02c0,0.02 0,0.02 -0.01,0.04c-0.05,0.35 -0.14,0.67 -0.27,0.99c0.01,0.14 0.01,0.3 -0.02,0.44c-0.08,0.42 -0.28,0.83 -0.49,1.19c-1.31,2.23 -3.78,4.6 -6.41,5.01c-1.09,0.17 -2.16,-0.18 -2.82,-1.09c-0.18,-0.24 -0.67,0.06 -0.59,0.33c0.09,0.23 0.18,0.43 0.3,0.62c-0.06,0.29 -0.04,0.61 -0.01,0.9c0.06,0.54 0.19,1.07 0.33,1.59c0.26,1.06 0.59,2.09 0.46,3.19c-0.1,0.79 -0.33,1.6 -0.7,2.29c-0.19,0.35 -0.42,0.71 -0.73,0.97c-0.28,0.24 -0.6,0.29 -0.92,0.45c-0.18,0.09 -0.43,0.41 -0.4,0.63c-0.02,0.01 -0.03,0.02 -0.05,0.02c-0.56,0.23 1.94,4.3 2.21,4.74c1.31,2.04 3.54,3.48 5.16,5.34c1.16,1.34 2.42,2.97 3.05,4.67c2.12,5.76 -7.12,6.46 -10.63,6.85c-3.86,0.43 -7.77,0.23 -11.59,-0.37c-1.89,-0.3 -3.76,-0.7 -5.61,-1.19c-1.56,-0.41 -3.49,-1.49 -5.07,-1.61c-0.45,-0.03 -0.89,-0.1 -1.32,-0.22c-0.31,-0.1 -0.63,-0.22 -0.92,-0.38c-0.09,-0.01 -0.17,-0.02 -0.26,-0.03c0.02,-0.03 0.02,-0.06 0.04,-0.1c-0.2,-0.13 -0.38,-0.28 -0.54,-0.45c-0.03,0.01 -0.06,0.02 -0.1,0.03c-1.81,0.79 -3.77,0.71 -5.69,0.42c-1.77,-0.28 -3.53,-0.73 -5.23,-1.32c-3.34,-1.17 -6.44,-2.94 -9.24,-5.1c-2.96,-2.28 -5.62,-4.98 -7.99,-7.88c-2.21,-2.7 -4.29,-5.7 -5.63,-8.93c-0.51,-1.21 -0.97,-2.48 -1.19,-3.79c-0.11,-0.66 -0.22,-1.52 0.03,-2.2c0.01,0 0.02,0 0.02,0c0.11,-0.05 0.21,-0.13 0.3,-0.22c0.02,-0.31 0.06,-0.62 0.13,-0.91c-0.06,0.02 -0.11,0.03 -0.17,0.06c0,-0.02 0,-0.03 0,-0.04c-0.01,-0.05 -0.01,-0.09 -0.02,-0.14c0.05,-0.02 0.1,-0.03 0.15,-0.06c0.02,-0.01 0.05,-0.02 0.07,-0.03c0.06,-0.26 0.13,-0.52 0.22,-0.77c-0.14,-0.1 -0.35,-0.09 -0.5,-0.02c-0.07,0.03 -0.09,0.04 -0.18,0.04c-0.07,0 -0.17,-0.02 -0.26,-0.06c-0.25,-0.11 -0.46,-0.32 -0.63,-0.53c-0.46,-0.55 -0.79,-1.2 -1.08,-1.85c-0.6,-1.36 -1.08,-2.81 -1.48,-4.24c-1.32,-4.68 -1.54,-9.61 -1.26,-14.43c0.14,-2.44 0.42,-4.86 0.79,-7.27c0.37,-2.37 0.79,-4.74 1.42,-7.05c1.27,-4.64 3.33,-9.05 5.99,-13.05c0.79,-1.2 1.65,-2.36 2.59,-3.44c0.53,-0.6 1.08,-1.2 1.72,-1.68c0.47,-0.38 1.01,-0.76 1.61,-0.87c0.14,-0.02 0.27,-0.04 0.42,-0.05c0.07,0.03 0.15,0.03 0.23,0.01c0.04,0.01 0.08,0.01 0.12,0.02c0.22,0.04 0.69,-0.31 0.39,-0.5c-0.02,-0.01 -0.03,-0.02 -0.06,-0.02c0,-0.05 -0.02,-0.1 -0.06,-0.14c-0.35,-0.44 -0.24,-1.04 -0.07,-1.54c0.26,-0.73 0.68,-1.4 1.11,-2.04c0.82,-1.22 1.77,-2.33 2.69,-3.47c3.3,-4.15 7.13,-7.82 11.19,-11.2c4,-3.33 8.19,-6.46 12.58,-9.25c4.41,-2.81 9.06,-5.29 13.95,-7.15c2.4,-0.91 4.85,-1.68 7.36,-2.24c1.18,-0.26 2.36,-0.46 3.58,-0.39c1.12,0.06 2.17,0.39 3.22,0.76c0.59,0.21 1.15,0.45 1.7,0.71c0.36,0.17 1.02,-0.51 0.59,-0.77c-0.4,-0.24 -0.8,-0.47 -1.22,-0.68c0.01,-0.05 0.01,-0.1 -0.02,-0.14c-0.45,-0.87 -1.3,-1.28 -1.94,-1.94c0.51,-1.33 1.78,-2.21 3,-2.97c1.57,-0.97 3.28,-1.71 4.98,-2.43c2.01,-0.86 3.98,-1.79 6.01,-2.58c21.06,-8.25 45.07,-9.34 67.38,-7.11c4.79,0.48 9.46,1.16 14.13,2.28c2.75,0.67 5.5,1.36 8.22,2.15c2.7,0.78 5.37,1.65 7.98,2.68c2.03,0.79 4,1.73 6.01,2.58c1.69,0.72 3.41,1.46 4.98,2.43c1.22,0.75 2.5,1.64 3,2.97c-0.65,0.67 -1.49,1.08 -1.94,1.94c-0.02,0.04 -0.02,0.09 -0.02,0.14c-0.42,0.21 -0.82,0.44 -1.22,0.68c-0.43,0.26 0.23,0.94 0.59,0.77c0.55,-0.26 1.12,-0.5 1.7,-0.71c1.05,-0.38 2.09,-0.71 3.22,-0.76c1.22,-0.06 2.4,0.14 3.58,0.39c2.5,0.56 4.96,1.32 7.36,2.24c4.89,1.86 9.54,4.34 13.95,7.15c4.39,2.79 8.58,5.92 12.58,9.25c4.07,3.38 7.9,7.05 11.19,11.2c0.91,1.15 1.87,2.25 2.69,3.47c0.43,0.64 0.85,1.31 1.11,2.04c0.17,0.5 0.27,1.1 -0.07,1.54c-0.04,0.05 -0.06,0.1 -0.06,0.14c-0.02,0.01 -0.04,0.02 -0.06,0.02c-0.3,0.18 0.17,0.54 0.39,0.5c0.04,-0.01 0.08,-0.01 0.12,-0.02c0.08,0.02 0.16,0.02 0.23,-0.01c0.14,0.01 0.28,0.02 0.42,0.05c0.6,0.11 1.14,0.5 1.61,0.87c0.63,0.49 1.19,1.08 1.72,1.68c0.94,1.08 1.79,2.25 2.59,3.44c2.66,4 4.72,8.41 5.99,13.05c0.63,2.31 1.05,4.69 1.42,7.05c0.38,2.41 0.65,4.83 0.79,7.27c0.28,4.83 0.06,9.76 -1.25,14.43z" fill="#FEC25F" id="svg_6"/>
      <path d="m103.74,100.2c-0.05,-0.21 -0.08,-0.42 -0.13,-0.62c0,-0.44 -0.02,-0.88 -0.02,-1.32c-0.04,-1.31 -0.1,-2.62 -0.21,-3.92c-0.19,-2.27 -0.58,-4.51 -1.05,-6.74c-0.21,-1.62 -0.47,-3.25 -0.73,-4.87c-0.99,-6.07 -2.33,-12.07 -3.98,-17.99c-1.61,-5.81 -3.74,-11.46 -6.11,-16.99c-1.18,-2.76 -2.42,-5.5 -3.67,-8.23c-1.23,-2.66 -2.5,-5.26 -4.08,-7.74c-1.52,-2.38 -3.23,-4.62 -4.93,-6.86c-1.42,-1.86 -2.92,-3.96 -4.97,-5.17c-0.48,-0.28 -0.98,-0.52 -1.5,-0.71c-0.16,-0.06 -0.45,0.23 -0.26,0.33c2.14,1.07 3.69,3.03 5.06,4.93c1.56,2.16 3.13,4.32 4.59,6.56c3.22,4.91 5.52,10.34 7.86,15.72c2.38,5.49 4.57,11.06 6.35,16.79c1.49,4.81 2.73,9.7 3.81,14.61c-0.64,-2.01 -1.33,-4.02 -2.05,-6.02c-1.73,-4.81 -3.59,-9.56 -5.73,-14.22c-1.08,-2.33 -2.17,-4.66 -3.23,-7c-0.97,-2.17 -1.86,-4.35 -3,-6.44c-2.17,-3.97 -4.93,-7.55 -8.3,-10.58c-0.42,-0.38 -0.83,-0.74 -1.25,-1.1c-0.11,-0.1 -0.38,0.11 -0.26,0.22c1.58,1.57 3.01,3.31 4.33,5.1c1.33,1.82 2.58,3.69 3.7,5.66c1.12,1.97 2.06,4.03 2.96,6.11c1,2.33 2.07,4.63 3.13,6.93c1.08,2.32 2.13,4.64 3.11,7c0.98,2.34 1.86,4.73 2.74,7.12c1.77,4.79 3.45,9.64 4.73,14.59c0.64,2.46 1.21,4.95 1.57,7.46c0.36,2.58 0.45,5.18 0.47,7.78c0,0.62 0.06,1.21 0.17,1.81c0.06,0.37 0.59,0.02 0.63,-0.2c0.09,-0.6 0.13,-1.21 0.14,-1.82c0.07,-0.05 0.14,-0.13 0.12,-0.21z" fill="#D78353" id="svg_7"/>
      <path d="m80.29,108.76c0.1,-0.09 0.18,-0.21 0.15,-0.34c-1.18,-5.59 -3.64,-10.89 -6.6,-15.75c-3.01,-4.94 -6.62,-9.5 -10.54,-13.74c-1.95,-2.1 -3.97,-4.13 -6.04,-6.11c-2.01,-1.93 -4.08,-3.81 -6.29,-5.54c-4.53,-3.54 -9.57,-6.52 -15,-8.47c-5.26,-1.89 -11.24,-2.85 -16.77,-1.66c-0.71,0.15 -1.42,0.32 -2.13,0.5c-0.22,0.06 -0.33,0.44 -0.02,0.38c1.39,-0.29 2.82,-0.39 4.24,-0.45c1.36,-0.05 2.72,-0.02 4.08,0.09c2.78,0.22 5.54,0.8 8.2,1.65c5.41,1.74 10.4,4.53 14.97,7.88c4.48,3.3 8.5,7.21 12.33,11.22c3.93,4.12 7.64,8.48 10.83,13.2c2.24,3.31 4.22,6.8 5.79,10.49c-0.1,-0.22 -0.19,-0.43 -0.3,-0.65c-1.15,-2.45 -2.57,-4.75 -4.04,-7.01c-2.83,-4.37 -6.01,-8.53 -9.55,-12.36c-3.41,-3.69 -7.07,-7.17 -11.03,-10.25c-3.98,-3.11 -8.25,-5.71 -12.83,-7.84c-4.68,-2.18 -9.76,-4.15 -15,-4c-0.6,0.02 -1.2,0.06 -1.81,0.14c-0.14,0.02 -0.26,0.3 -0.06,0.29c2.51,-0.02 5.05,0.47 7.46,1.17c2.48,0.71 4.88,1.68 7.24,2.74c4.51,2.05 8.77,4.53 12.74,7.49c4,2.98 7.69,6.35 11.12,9.97c3.51,3.71 6.79,7.61 9.7,11.8c1.5,2.15 2.93,4.36 4.24,6.62c1.34,2.3 2.45,4.74 3.6,7.14c0.3,0.6 0.59,1.2 0.94,1.77c0.11,0.19 0.5,-0.05 0.43,-0.24c-0.02,-0.04 -0.04,-0.07 -0.06,-0.11z" fill="#D78353" id="svg_8"/>
      <path d="m72.97,113.59c-2.96,-3.45 -6.86,-5.94 -10.97,-7.81c-4.18,-1.9 -8.67,-3.09 -13.17,-3.87c-4.78,-0.83 -9.72,-1.24 -14.56,-1.08c-5.46,0.18 -10.97,1.2 -15.98,3.45c-2.03,0.91 -4.03,1.94 -5.89,3.16c-1.84,1.2 -3.56,2.63 -4.8,4.48c-0.27,0.41 -0.5,0.83 -0.69,1.29c-0.08,0.19 0.08,0.24 0.23,0.2c-0.13,0.25 -0.25,0.51 -0.38,0.76c-0.11,0.24 0.18,0.33 0.33,0.15c1.28,-1.57 2.7,-3.07 4.32,-4.28c1.64,-1.21 3.4,-2.19 5.29,-2.95c3.95,-1.59 8.18,-2.33 12.41,-2.63c4.13,-0.29 8.3,-0.19 12.42,0.22c4.77,0.49 9.54,1.47 14.07,3.06c4.53,1.6 8.9,3.77 12.49,6.99c0.43,0.39 0.84,0.78 1.27,1.16c0.22,0.19 0.71,-0.2 0.52,-0.45c-1.4,-1.87 -3.35,-3.41 -5.28,-4.7c-2.07,-1.37 -4.28,-2.5 -6.57,-3.47c-4.57,-1.92 -9.49,-3.06 -14.4,-3.68c-4.23,-0.54 -8.55,-0.71 -12.81,-0.5c-3.8,0.19 -7.6,0.71 -11.24,1.81c4.1,-1.6 8.43,-2.46 12.85,-2.7c4.78,-0.26 9.61,0.06 14.34,0.77c4.45,0.66 8.83,1.68 13.03,3.3c4.16,1.6 7.99,3.84 11.35,6.76c0.41,0.35 0.81,0.71 1.2,1.08c0.24,0.22 0.84,-0.25 0.61,-0.52z" fill="#D78353" id="svg_9"/>
      <path d="m68.91,125.01c-2.01,-1.3 -4.57,-1.32 -6.88,-1.03c-2.57,0.33 -5.08,1.17 -7.43,2.23c-4.65,2.09 -8.85,5.19 -11.9,9.31c-0.87,1.18 -1.62,2.46 -2.25,3.8c-0.3,0.64 -0.56,1.31 -0.77,1.98c-0.22,0.69 -0.44,1.42 -0.47,2.14c-0.02,0.48 0.61,0.17 0.72,-0.07c0.06,-0.14 0.12,-0.3 0.18,-0.44c0.01,-0.02 0.02,-0.04 0.02,-0.06c0.39,-0.99 0.74,-1.99 1.2,-2.95c0.55,-1.13 1.21,-2.19 1.93,-3.22c1.42,-1.99 3.15,-3.78 5.06,-5.3c1.77,-1.4 3.67,-2.55 5.7,-3.52c2.16,-1.04 4.41,-1.88 6.77,-2.35c2.53,-0.51 5.06,-0.46 7.57,0.18c0.31,0.08 0.94,-0.43 0.54,-0.69z" fill="#D78353" id="svg_10"/>
      <path d="m67.2,126.4c-2.04,-0.38 -4.22,0.01 -6.23,0.44c-2.29,0.48 -4.55,1.25 -6.69,2.21c-4.17,1.87 -8.2,4.67 -10.64,8.61c-0.64,1.04 -1.16,2.14 -1.48,3.32c-0.35,1.19 -0.47,2.36 -0.43,3.59c0.01,0.25 0.38,0.1 0.39,-0.08c0.42,-4.26 2.9,-7.94 6.15,-10.58c3.43,-2.78 7.62,-4.66 11.91,-5.71c1.16,-0.28 2.31,-0.51 3.48,-0.67c1.1,-0.15 2.21,-0.26 3.3,-0.43c0.26,-0.03 0.69,-0.62 0.24,-0.71z" fill="#D78353" id="svg_11"/>
      <path d="m166.68,100.2c0.04,-0.21 0.08,-0.42 0.12,-0.62c0.01,-0.44 0.02,-0.88 0.03,-1.32c0.03,-1.31 0.1,-2.62 0.21,-3.92c0.19,-2.27 0.58,-4.51 1.05,-6.74c0.21,-1.62 0.47,-3.25 0.73,-4.87c0.99,-6.07 2.33,-12.07 3.97,-17.99c1.61,-5.81 3.75,-11.46 6.11,-16.99c1.19,-2.76 2.42,-5.5 3.67,-8.23c1.23,-2.66 2.5,-5.26 4.08,-7.74c1.52,-2.38 3.23,-4.62 4.93,-6.86c1.42,-1.86 2.92,-3.96 4.97,-5.17c0.47,-0.28 0.98,-0.52 1.5,-0.71c0.16,-0.06 0.45,0.23 0.26,0.33c-2.14,1.07 -3.69,3.03 -5.07,4.93c-1.56,2.16 -3.13,4.32 -4.59,6.56c-3.21,4.91 -5.52,10.34 -7.85,15.72c-2.38,5.49 -4.58,11.06 -6.35,16.79c-1.48,4.81 -2.73,9.7 -3.8,14.61c0.64,-2.01 1.33,-4.02 2.05,-6.02c1.73,-4.81 3.59,-9.56 5.73,-14.22c1.07,-2.33 2.17,-4.66 3.23,-7c0.96,-2.17 1.85,-4.35 2.99,-6.44c2.18,-3.97 4.93,-7.55 8.3,-10.58c0.41,-0.38 0.83,-0.74 1.25,-1.1c0.11,-0.1 0.37,0.11 0.26,0.22c-1.59,1.57 -3.02,3.31 -4.33,5.1c-1.33,1.82 -2.58,3.69 -3.7,5.66c-1.12,1.97 -2.06,4.03 -2.96,6.11c-1,2.33 -2.08,4.63 -3.14,6.93c-1.07,2.32 -2.13,4.64 -3.11,7c-0.97,2.34 -1.85,4.73 -2.74,7.12c-1.78,4.79 -3.45,9.64 -4.74,14.59c-0.64,2.46 -1.21,4.95 -1.56,7.46c-0.36,2.58 -0.45,5.18 -0.47,7.78c-0.01,0.62 -0.06,1.21 -0.17,1.81c-0.06,0.37 -0.59,0.02 -0.63,-0.2c-0.1,-0.6 -0.13,-1.21 -0.14,-1.82c-0.07,-0.05 -0.14,-0.13 -0.12,-0.21z" fill="#D78353" id="svg_12"/>
      <path d="m190.13,108.76c-0.1,-0.09 -0.18,-0.21 -0.14,-0.34c1.18,-5.59 3.63,-10.89 6.6,-15.75c3.01,-4.94 6.63,-9.5 10.55,-13.74c1.95,-2.1 3.97,-4.13 6.03,-6.11c2.02,-1.93 4.09,-3.81 6.29,-5.54c4.53,-3.54 9.58,-6.52 15,-8.47c5.26,-1.89 11.23,-2.85 16.77,-1.66c0.71,0.15 1.42,0.32 2.13,0.5c0.22,0.06 0.33,0.44 0.02,0.38c-1.39,-0.29 -2.82,-0.39 -4.24,-0.45c-1.36,-0.05 -2.72,-0.02 -4.08,0.09c-2.78,0.22 -5.54,0.8 -8.2,1.65c-5.41,1.74 -10.41,4.53 -14.97,7.88c-4.48,3.3 -8.5,7.21 -12.33,11.22c-3.93,4.12 -7.64,8.48 -10.83,13.2c-2.24,3.31 -4.22,6.8 -5.79,10.49c0.1,-0.22 0.19,-0.43 0.3,-0.65c1.15,-2.45 2.57,-4.75 4.04,-7.01c2.83,-4.37 6.01,-8.53 9.55,-12.36c3.41,-3.69 7.07,-7.17 11.03,-10.25c3.98,-3.11 8.25,-5.71 12.83,-7.84c4.68,-2.18 9.76,-4.15 15,-4c0.6,0.02 1.2,0.06 1.81,0.14c0.14,0.02 0.26,0.3 0.06,0.29c-2.51,-0.02 -5.05,0.47 -7.46,1.17c-2.48,0.71 -4.88,1.68 -7.24,2.74c-4.51,2.05 -8.77,4.53 -12.74,7.49c-4,2.98 -7.69,6.35 -11.12,9.97c-3.51,3.71 -6.79,7.61 -9.7,11.8c-1.5,2.15 -2.93,4.36 -4.24,6.62c-1.34,2.3 -2.45,4.74 -3.6,7.14c-0.3,0.6 -0.59,1.2 -0.94,1.77c-0.11,0.19 -0.5,-0.05 -0.43,-0.24c0.02,-0.04 0.04,-0.07 0.05,-0.11z" fill="#D78353" id="svg_13"/>
      <path d="m197.84,113.59c2.96,-3.45 6.85,-5.94 10.97,-7.81c4.17,-1.9 8.66,-3.09 13.17,-3.87c4.77,-0.83 9.71,-1.24 14.56,-1.08c5.46,0.18 10.97,1.2 15.98,3.45c2.03,0.91 4.03,1.94 5.89,3.16c1.84,1.2 3.56,2.63 4.8,4.48c0.28,0.41 0.51,0.83 0.69,1.29c0.08,0.19 -0.08,0.24 -0.23,0.2c0.14,0.25 0.26,0.51 0.38,0.76c0.11,0.24 -0.18,0.33 -0.33,0.15c-1.28,-1.57 -2.7,-3.07 -4.32,-4.28c-1.63,-1.21 -3.4,-2.19 -5.29,-2.95c-3.95,-1.59 -8.18,-2.33 -12.41,-2.63c-4.13,-0.29 -8.3,-0.19 -12.42,0.22c-4.77,0.49 -9.54,1.47 -14.07,3.06c-4.53,1.6 -8.9,3.77 -12.49,6.99c-0.43,0.39 -0.84,0.78 -1.27,1.16c-0.22,0.19 -0.71,-0.2 -0.52,-0.45c1.4,-1.87 3.35,-3.41 5.29,-4.7c2.06,-1.37 4.28,-2.5 6.56,-3.47c4.57,-1.92 9.49,-3.06 14.4,-3.68c4.24,-0.54 8.55,-0.71 12.81,-0.5c3.79,0.19 7.6,0.71 11.24,1.81c-4.11,-1.6 -8.44,-2.46 -12.85,-2.7c-4.78,-0.26 -9.6,0.06 -14.34,0.77c-4.45,0.66 -8.83,1.68 -13.03,3.3c-4.16,1.6 -7.99,3.84 -11.35,6.76c-0.41,0.35 -0.81,0.71 -1.2,1.08c-0.24,0.22 -0.83,-0.25 -0.6,-0.52z" fill="#D78353" id="svg_14"/>
      <path d="m201.51,125.01c2.01,-1.3 4.57,-1.32 6.88,-1.03c2.57,0.33 5.07,1.17 7.43,2.23c4.65,2.09 8.84,5.19 11.89,9.31c0.88,1.18 1.63,2.46 2.25,3.8c0.3,0.64 0.56,1.31 0.77,1.98c0.22,0.69 0.44,1.42 0.47,2.14c0.02,0.48 -0.62,0.17 -0.72,-0.07c-0.07,-0.14 -0.12,-0.3 -0.18,-0.44c-0.02,-0.02 -0.02,-0.04 -0.02,-0.06c-0.39,-0.99 -0.74,-1.99 -1.21,-2.95c-0.55,-1.13 -1.21,-2.19 -1.93,-3.22c-1.41,-1.99 -3.15,-3.78 -5.05,-5.3c-1.77,-1.4 -3.68,-2.55 -5.7,-3.52c-2.17,-1.04 -4.41,-1.88 -6.77,-2.35c-2.53,-0.51 -5.07,-0.46 -7.57,0.18c-0.31,0.08 -0.94,-0.43 -0.54,-0.69z" fill="#D78353" id="svg_15"/>
      <path d="m203.46,125.91c2.04,-0.38 4.23,0.01 6.23,0.43c2.29,0.49 4.56,1.26 6.69,2.22c4.17,1.87 8.2,4.66 10.65,8.61c0.64,1.04 1.15,2.14 1.48,3.32c0.34,1.19 0.46,2.36 0.42,3.59c-0.01,0.25 -0.37,0.1 -0.39,-0.09c-0.42,-4.25 -2.9,-7.94 -6.15,-10.58c-3.43,-2.78 -7.61,-4.67 -11.91,-5.71c-1.15,-0.28 -2.31,-0.51 -3.48,-0.67c-1.1,-0.15 -2.2,-0.26 -3.3,-0.43c-0.26,-0.03 -0.69,-0.63 -0.24,-0.71z" fill="#D78353" id="svg_16"/>
      <path d="m268.73,90.17c-0.21,-2.54 -0.55,-5.06 -1,-7.57c-0.45,-2.55 -0.99,-5.07 -1.81,-7.53c-1.45,-4.34 -3.57,-8.49 -6.23,-12.2c-1,-1.4 -2.09,-2.77 -3.39,-3.9c-0.63,-0.55 -1.57,-1.29 -2.5,-1.45c0.02,-0.03 0.02,-0.06 0.04,-0.1c0.18,-0.67 -0.1,-1.45 -0.36,-2.05c-0.35,-0.8 -0.81,-1.53 -1.31,-2.24c-0.47,-0.67 -0.99,-1.32 -1.5,-1.95c-0.15,-0.19 -0.31,-0.39 -0.47,-0.58c-0.02,-0.03 -0.08,-0.1 -0.1,-0.13c-0.06,-0.08 -0.11,-0.16 -0.18,-0.23c-0.1,-0.13 -0.19,-0.25 -0.29,-0.38c-0.2,-0.25 -0.4,-0.5 -0.6,-0.75c-3.49,-4.28 -7.6,-8.02 -11.87,-11.48c-4.19,-3.4 -8.56,-6.59 -13.17,-9.39c-4.67,-2.85 -9.6,-5.32 -14.78,-7.07c-1.26,-0.43 -2.53,-0.81 -3.81,-1.15c-1.29,-0.34 -2.61,-0.66 -3.94,-0.79c-1.09,-0.1 -2.19,-0.04 -3.26,0.2c0.2,-0.12 0.39,-0.25 0.58,-0.39c0.26,-0.21 0.37,-0.35 0.3,-0.68c-0.09,-0.41 -0.26,-0.79 -0.48,-1.15c-0.49,-0.79 -1.18,-1.44 -1.9,-2c-1.62,-1.27 -3.54,-2.15 -5.41,-2.98c-1.93,-0.85 -3.86,-1.73 -5.81,-2.54c-2.82,-1.17 -5.71,-2.16 -8.63,-3.04c-2.9,-0.87 -5.83,-1.62 -8.76,-2.34c-3.11,-0.75 -6.23,-1.43 -9.4,-1.9c-3.67,-0.55 -7.38,-0.87 -11.09,-1.01c-0.79,-0.1 -1.6,-0.18 -2.4,-0.23c-3.02,-0.19 -6.06,-0.2 -9.09,-0.14c-2.62,0.06 -5.24,0.16 -7.86,0.31c-5.66,-0.09 -11.34,0.23 -16.95,1.08c-3.17,0.47 -6.29,1.15 -9.4,1.9c-2.94,0.72 -5.87,1.48 -8.76,2.34c-2.92,0.87 -5.82,1.87 -8.64,3.03c-1.95,0.81 -3.88,1.69 -5.8,2.54c-1.87,0.83 -3.8,1.71 -5.41,2.98c-0.72,0.56 -1.41,1.21 -1.9,2c-0.22,0.35 -0.39,0.74 -0.48,1.14c-0.07,0.34 0.03,0.48 0.3,0.69c0.18,0.14 0.38,0.27 0.58,0.39c-1.07,-0.24 -2.17,-0.3 -3.26,-0.19c-1.33,0.13 -2.65,0.45 -3.94,0.79c-1.28,0.34 -2.55,0.72 -3.81,1.15c-5.18,1.75 -10.1,4.22 -14.78,7.07c-4.61,2.8 -8.98,5.99 -13.17,9.38c-4.27,3.47 -8.38,7.21 -11.87,11.49c-0.2,0.25 -0.4,0.5 -0.6,0.75c-0.1,0.13 -0.19,0.25 -0.29,0.38c-0.06,0.07 -0.12,0.15 -0.18,0.23c-0.02,0.02 -0.07,0.1 -0.1,0.13c-0.15,0.19 -0.31,0.39 -0.47,0.58c-0.51,0.63 -1.03,1.28 -1.5,1.95c-0.5,0.71 -0.96,1.44 -1.31,2.24c-0.26,0.6 -0.54,1.39 -0.36,2.05c0.02,0.03 0.02,0.06 0.04,0.1c-0.93,0.16 -1.87,0.89 -2.5,1.44c-1.3,1.14 -2.39,2.5 -3.39,3.91c-2.66,3.71 -4.77,7.86 -6.23,12.2c-0.82,2.46 -1.36,4.98 -1.81,7.53c-0.45,2.5 -0.79,5.03 -1,7.57c-0.43,5.09 -0.35,10.31 0.87,15.29c0.4,1.64 0.92,3.3 1.57,4.87c0.3,0.73 0.63,1.47 1.09,2.13c0.35,0.51 0.83,1.06 1.48,1.19c0.01,0.01 0.02,0.01 0.03,0.01c0.01,0.01 0.02,0.02 0.04,0.03c0,0.02 -0.01,0.05 -0.01,0.08c-0.02,0.13 -0.03,0.26 -0.06,0.39c-0.02,0.06 -0.03,0.12 -0.06,0.18c-0.02,0.03 -0.03,0.06 -0.04,0.1c-0.03,0.09 -0.03,0.18 0.01,0.26c0,0.01 0.01,0.01 0.01,0.02c-0.71,1.47 -0.07,3.87 0.35,5.2c0.39,1.21 0.92,2.37 1.5,3.49c0.97,1.88 2.12,3.66 3.38,5.34c2.38,3.19 5.15,6.15 8.21,8.7c2.86,2.4 6.07,4.39 9.55,5.77c1.97,0.79 4.02,1.36 6.11,1.71c2.02,0.35 4.18,0.55 6.13,-0.18c-0.01,0.16 0.08,0.3 0.35,0.32c2.06,0.18 3.93,1.33 5.92,1.83c2.46,0.62 4.9,1.19 7.41,1.56c2.42,0.35 4.85,0.61 7.29,0.66c2.25,0.05 4.45,-0.14 6.68,-0.48c1.6,-0.26 3.23,-0.5 4.79,-0.98c1.52,-0.47 3.13,-1.13 4.12,-2.46c2.29,-3.08 -0.56,-6.85 -2.59,-9.18c-1.39,-1.59 -2.86,-3.11 -4.22,-4.72c-0.63,-0.73 -1.2,-1.47 -1.64,-2.33c-0.37,-0.73 -0.67,-1.57 -1.24,-2.17c-0.09,-0.09 -0.17,-0.18 -0.26,-0.26c0.87,-0.02 1.69,-0.88 2.14,-1.53c0.56,-0.81 0.89,-1.79 1.08,-2.75c0.22,-1.15 0.01,-2.23 -0.35,-3.33c-0.18,-0.56 -0.41,-1.1 -0.6,-1.65c-0.02,-0.07 -0.04,-0.14 -0.06,-0.21c1.35,0.8 3.43,0.26 4.81,-0.48c0.91,-0.49 1.68,-1.14 2.43,-1.85c0.88,-0.84 1.72,-1.79 2.35,-2.83c0.33,-0.55 0.62,-1.14 0.74,-1.77c0.01,-0.06 0.02,-0.11 0.03,-0.17c0.08,0.08 0.16,0.16 0.25,0.23c0.81,0.67 1.83,0.96 2.86,1.08c2.21,0.26 4.5,-0.36 6.6,-1c3.5,-1.08 7.09,-2.32 10.2,-4.3c0.86,-0.55 1.68,-1.19 2.29,-2.01c0.11,-0.15 0.22,-0.32 0.31,-0.5c0.16,0.22 0.35,0.43 0.54,0.63c1.1,1.11 2.78,1.36 4.23,1.76c3.23,0.89 6.56,1.52 9.9,1.73c2.33,0.14 4.65,0.4 6.99,0.51c3.36,0.16 6.74,0.16 10.11,0.08c0.04,0 0.09,0 0.13,0c0.04,0 0.09,0 0.13,0c3.37,0.08 6.75,0.08 10.12,-0.08c2.33,-0.11 4.65,-0.38 6.98,-0.51c3.36,-0.2 6.8,-0.35 10.05,-1.3c1.48,-0.43 2.98,-1.07 4.09,-2.18c0.18,-0.19 0.37,-0.4 0.53,-0.63c0.09,0.18 0.2,0.35 0.31,0.5c0.61,0.83 1.44,1.46 2.3,2.01c3.1,1.98 6.7,3.23 10.2,4.3c2.09,0.64 4.39,1.26 6.6,1c1.03,-0.12 2.05,-0.41 2.86,-1.08c0.09,-0.07 0.17,-0.15 0.25,-0.23c0.01,0.06 0.02,0.11 0.02,0.17c0.12,0.63 0.41,1.23 0.74,1.77c0.64,1.04 1.47,1.99 2.35,2.83c0.75,0.71 1.52,1.36 2.44,1.85c1.38,0.75 3.45,1.28 4.81,0.47c-0.02,0.07 -0.05,0.14 -0.07,0.21c-0.19,0.56 -0.42,1.1 -0.6,1.66c-0.35,1.09 -0.56,2.18 -0.34,3.32c0.18,0.97 0.51,1.95 1.08,2.76c0.45,0.65 1.28,1.51 2.15,1.53c-0.09,0.08 -0.18,0.17 -0.26,0.25c-0.58,0.6 -0.87,1.44 -1.24,2.17c-0.43,0.86 -1.01,1.6 -1.63,2.33c-1.36,1.61 -2.84,3.12 -4.23,4.72c-2.03,2.33 -4.89,6.1 -2.59,9.18c0.99,1.32 2.6,1.99 4.12,2.46c1.56,0.48 3.18,0.72 4.78,0.98c2.22,0.35 4.43,0.53 6.68,0.48c2.45,-0.05 4.88,-0.31 7.29,-0.67c2.24,-0.32 4.43,-0.82 6.62,-1.36c0.02,-0.04 0.06,-0.08 0.13,-0.09c0.73,-0.15 1.44,-0.36 2.15,-0.59c0.89,-0.33 1.77,-0.71 2.68,-0.99c0.34,-0.14 0.67,-0.27 1.01,-0.41c0.29,-0.12 0.58,-0.26 0.89,-0.27c0.38,-0.02 0.76,0.14 1.13,0.27c1.68,0.38 3.48,0.19 5.18,-0.1c2.09,-0.35 4.14,-0.92 6.11,-1.71c3.48,-1.38 6.68,-3.37 9.56,-5.77c3.05,-2.55 5.82,-5.51 8.2,-8.7c1.27,-1.68 2.41,-3.47 3.38,-5.34c0.58,-1.12 1.12,-2.28 1.5,-3.49c0.43,-1.33 1.08,-3.73 0.35,-5.2c0,-0.01 0.01,-0.01 0.02,-0.02c0.03,-0.09 0.03,-0.18 0.01,-0.26c-0.02,-0.04 -0.03,-0.07 -0.05,-0.1c-0.02,-0.06 -0.04,-0.12 -0.06,-0.18c-0.02,-0.13 -0.04,-0.26 -0.05,-0.39c-0.01,-0.03 -0.01,-0.06 -0.02,-0.08c0.02,-0.01 0.03,-0.02 0.05,-0.03c0.01,-0.01 0.02,-0.01 0.02,-0.01c0.64,-0.13 1.12,-0.67 1.48,-1.19c0.45,-0.66 0.79,-1.4 1.09,-2.13c0.64,-1.57 1.17,-3.23 1.57,-4.87c1.21,-4.97 1.29,-10.2 0.87,-15.29zm-258.69,-1.53c-1.26,-4.68 1.55,-11.77 2.86,-15.28c2.82,-7.5 8.05,-12.12 16.38,-10.76c5.56,0.91 11.26,3.74 15.55,7.36c3.92,3.29 5.66,9.48 4.82,14.43c-0.84,4.94 -4.33,7.09 -9.13,7.03c-4.12,-0.06 -8.22,-0.67 -12.33,-0.66c-4.23,0 -7.9,1.53 -12,1.93c-1.62,0.16 -3.39,-0.15 -4.57,-1.28c-0.79,-0.75 -1.3,-1.7 -1.59,-2.78zm28.36,37.15c-1.22,0.84 -2.42,1.85 -3.67,2.82c-1.85,1.41 -3.78,2.71 -6,3.2c-0.99,0.22 -2.03,0.23 -3.03,0.02c-1.16,-0.26 -2.21,-0.8 -3.17,-1.48c-2.52,-1.8 -4.73,-4.1 -6.59,-6.56c-1.05,-1.39 -1.99,-2.86 -2.7,-4.45c-0.63,-1.4 -1.09,-2.9 -1.13,-4.45c-0.04,-1.45 0.35,-2.89 1.2,-4.08c0.91,-1.26 2.22,-2.21 3.58,-2.94c3.16,-1.69 6.83,-2.37 10.36,-2.69c8.19,-0.75 20.16,-0.95 25.67,6.52c2.87,3.89 0.16,6.8 -3.52,8.24c-3.88,1.51 -7.58,3.48 -10.99,5.87zm24.22,11.55c-0.63,3.19 -2.33,6.64 -5.74,7.53c-1.6,0.42 -3.19,0.16 -4.77,-0.23c-1.44,-0.35 -2.92,-0.83 -4.17,-1.64c-1.1,-0.71 -2.04,-1.76 -2.01,-3.13c0.01,-0.8 0.33,-1.56 0.71,-2.25c0.43,-0.81 1,-1.56 1.64,-2.22c1.32,-1.4 2.97,-2.49 4.69,-3.32c1.12,-0.55 2.29,-0.99 3.48,-1.33c0.28,-0.15 0.55,-0.3 0.84,-0.45c0.71,-0.36 1.5,-0.68 2.33,-0.55c0.91,0.17 1.73,0.9 2.21,1.67c0.55,0.86 0.81,1.87 0.92,2.87c0.11,1 0.08,2.07 -0.12,3.07zm20.68,-77.5c-0.32,1.08 -0.84,2.07 -1.53,2.94c-1.56,1.98 -3.83,3.14 -6.11,4.08c-2.46,1.01 -5.13,1.45 -7.73,0.79c-2.71,-0.7 -4.93,-2.38 -7.08,-4.09c-2.53,-2.01 -5.17,-3.88 -7.94,-5.52c-2.73,-1.62 -5.59,-3.03 -8.56,-4.16c-1.09,-0.42 -2.2,-0.81 -3.32,-1.15c-0.97,-0.29 -1.95,-0.56 -2.9,-0.87c-1.81,-0.6 -3.86,-1.39 -4.97,-3.02c-1.21,-1.8 -0.57,-4.17 0.42,-5.91c1.27,-2.24 3.23,-4.06 5.2,-5.66c2.01,-1.63 4.16,-3.11 6.35,-4.49c2.4,-1.51 4.88,-2.89 7.45,-4.07c0.88,-0.59 1.78,-1.15 2.7,-1.66c2.19,-1.2 4.57,-2.19 7.08,-2.41c2.48,-0.21 4.89,0.5 6.86,2.02c1.06,0.81 1.98,1.81 2.87,2.81c0.91,1.01 1.77,2.08 2.58,3.17c1.73,2.34 3.25,4.85 4.54,7.45c1.3,2.6 2.38,5.31 3.19,8.11c0.74,2.59 1.24,5.27 1.32,7.98c0.04,1.24 -0.03,2.48 -0.39,3.67zm94.54,-19.75c-0.63,1.03 -1.24,2.08 -1.93,3.07c-1.19,1.71 -2.6,3.3 -4.38,4.4c-1.46,0.91 -3.11,1.41 -4.82,1.58c-1.89,0.18 -3.79,-0.01 -5.66,-0.29c-2.25,-0.34 -4.49,-0.79 -6.72,-1.22c-3.29,-0.63 -6.58,-1.17 -9.93,-1.46c-3.34,-0.3 -6.69,-0.39 -10.05,-0.3c-3.22,0.09 -6.48,0.29 -9.66,0.84c-2.86,0.5 -5.65,1.29 -8.46,1.99c-2.81,0.7 -5.66,1.33 -8.57,1.44c-1.29,0.05 -2.58,0 -3.83,-0.32c-1.16,-0.3 -2.28,-0.78 -3.32,-1.36c-3.53,-2 -6.48,-5.28 -8.3,-8.97c-3.51,-5.23 -7.06,-11.22 -7.08,-17.53c-0.03,-7.77 9.18,-11.13 15.47,-12.85c19.26,-5.26 39.58,-6.14 59.25,-2.78c2.42,0.42 5.28,0.98 8.15,1.81c0.83,0.22 1.66,0.45 2.49,0.71c2.55,0.79 5.1,1.71 7.49,2.9c2.03,1.01 3.93,2.34 5.25,4.23c2.95,4.24 2,9.54 0.14,14.01c-1,2.42 -2.26,4.71 -3.6,6.95c-0.63,1.06 -1.28,2.1 -1.94,3.15zm22.39,22.79c-2.78,2.61 -5.63,4.87 -9.97,4.57c-4.07,-0.28 -7.42,-3.58 -7.61,-7.67c-0.11,-2.51 0.67,-4.97 1.53,-7.33c3.76,-10.38 10.99,-27.84 24.99,-25.96c1.66,0.22 3.3,0.61 4.89,1.12c6.48,2.05 13.8,5.59 18.15,10.97c1.08,1.35 2.01,2.9 2.28,4.61c0.91,5.95 -5.95,6.77 -10.14,7.47c-8.31,1.4 -15.43,4.2 -21.71,9.96c-0.82,0.75 -1.6,1.52 -2.41,2.27zm20.04,73.92c-0.25,1.43 -1.39,2.46 -2.63,3.07c-1.48,0.73 -3.15,1.04 -4.77,1.12c-2.2,0.1 -6.09,-0.1 -6.54,-2.93c-0.18,-1.16 0.31,-2.33 0.96,-3.27c0.79,-1.14 1.88,-2.09 3.09,-2.76c0.48,-0.26 0.99,-0.5 1.52,-0.67c-0.06,-0.11 -0.03,-0.27 0.12,-0.31c0.35,-0.09 0.72,-0.14 1.09,-0.14c0.41,-0.01 0.83,0.03 1.25,0.1c0.01,0 0.02,0 0.04,0c0.91,0.06 1.77,0.38 2.5,0.87c0.43,0.22 0.83,0.47 1.2,0.75c1.31,0.95 2.47,2.46 2.17,4.17zm28.44,-13.78c-0.92,0.91 -1.96,1.65 -3.14,2.21c-1.16,0.55 -2.41,0.92 -3.67,1.17c-2.7,0.53 -5.53,0.5 -8.22,-0.11c-2.5,-0.57 -5,-1.69 -6.76,-3.6c-1.99,-2.15 -2.89,-5.28 -2.47,-8.16c0.44,-3.02 2.38,-5.65 5.05,-7.09c2.35,-1.28 5.1,-1.48 7.72,-1.44c2.8,0.03 5.67,0.4 8.32,1.36c2.29,0.83 4.61,2.21 5.63,4.53c0.02,0.06 0.02,0.1 0,0.15c0.06,0.09 0.13,0.17 0.19,0.26c0.64,0.99 0.97,2.17 0.96,3.35c0,2.84 -1.67,5.45 -3.62,7.38zm6.23,-41.84c-1.04,2.94 -3.33,5.14 -6.05,6.56c-2.98,1.56 -6.37,2.29 -9.71,2.61c-3.35,0.31 -6.75,0.19 -10.06,-0.35c-1.93,-0.32 -3.77,-0.95 -5.38,-2.08c-1.48,-1.04 -2.71,-2.44 -3.47,-4.09c-0.73,-1.58 -1.01,-3.35 -0.75,-5.08c0.27,-1.89 1.21,-3.63 2.5,-5.04c1.6,-1.74 3.51,-3.26 5.47,-4.57c2.04,-1.36 4.2,-2.5 6.47,-3.43c1.2,-0.5 2.43,-0.93 3.68,-1.3c1.56,-0.76 3.17,-1.45 4.82,-1.98c1.93,-0.6 3.99,-1.03 6,-0.76c1.88,0.25 3.59,1.16 4.69,2.73c1.18,1.64 1.66,3.73 1.95,5.7c0.29,2 0.36,4.01 0.46,6.03c0.09,1.71 -0.05,3.42 -0.62,5.04z" fill="#DA8A4A" id="svg_17" opacity="0.5"/>
      <path d="m189.4,109.96c0.01,0.06 0.02,0.11 0.02,0.17c0.12,0.63 0.41,1.23 0.74,1.77c0.63,1.04 1.47,1.99 2.35,2.83c0.75,0.71 1.52,1.36 2.43,1.85c1.39,0.75 3.46,1.28 4.81,0.47c-0.02,0.07 -0.04,0.14 -0.06,0.21c-0.19,0.55 -0.43,1.1 -0.6,1.66c-0.35,1.09 -0.56,2.18 -0.34,3.32c0.18,0.97 0.51,1.95 1.08,2.76c0.45,0.65 1.28,1.51 2.15,1.53c-0.1,0.07 -0.18,0.16 -0.26,0.25c-0.57,0.59 -0.87,1.44 -1.24,2.17c-0.43,0.86 -1.01,1.59 -1.63,2.33c-1.36,1.61 -2.84,3.12 -4.23,4.72c-1.96,2.25 -4.7,5.85 -2.8,8.87c0.25,-0.11 0.51,-0.22 0.75,-0.35c0.75,-0.36 1.48,-0.78 2.15,-1.27c0.74,-0.53 1.41,-1.17 2.08,-1.79c2.45,-2.24 4.68,-4.69 6.81,-7.23c1,-1.19 2.02,-2.38 3.15,-3.45c1.1,-1.05 2.31,-2.05 3.74,-2.62c1.27,-0.51 2.64,-0.66 4,-0.44c1.32,0.21 2.57,0.75 3.71,1.43c2.17,1.3 4.02,3.06 5.84,4.81c-1.15,-2.33 -3.06,-4.17 -4.45,-6.35c-0.73,-1.15 -1.34,-2.42 -1.52,-3.78c-0.2,-1.5 0.1,-3 0.36,-4.48c0.07,-0.43 0.14,-0.85 0.18,-1.28c-0.01,-0.36 0,-0.73 0.01,-1.09c0.06,-2.92 0.47,-5.97 1.73,-8.64c0.53,-1.13 1.24,-2.21 2.21,-3.02c1.17,-0.99 2.65,-1.64 4.09,-2.1c3.32,-1.06 6.92,-1.1 10.36,-0.84c3.06,0.22 6.07,0.73 9.1,1.22c-0.36,-0.24 -0.72,-0.47 -1.1,-0.69c-5.05,-2.88 -11.27,-2.88 -16.92,-2.55c-2.76,0.16 -5.51,0.51 -8.27,0.62c-2.28,0.1 -4.45,-0.56 -6.08,-2.2c-1.66,-1.67 -2.63,-3.92 -3.5,-6.07c-1.04,-2.57 -1.64,-5.31 -1.12,-8.07c0.48,-2.52 1.85,-4.74 3.43,-6.71c1.91,-2.36 4.13,-4.47 6.3,-6.58c3.67,-3.57 7.69,-7.25 12.39,-9.48c-7.65,2.29 -13.9,7.29 -19.75,12.56c-1.48,1.33 -2.95,2.68 -4.44,4.01c-1.52,1.36 -3.03,2.85 -4.75,3.98c-1.66,1.09 -3.59,1.74 -5.58,1.76c-2.01,0.02 -3.99,-0.54 -5.83,-1.31c-1.73,-0.73 -3.38,-1.65 -5,-2.6c-1.58,-0.92 -3.13,-1.92 -4.57,-3.05c-2.79,-2.21 -5.14,-5.04 -5.62,-8.67c-0.52,-4 0.63,-8.11 1.77,-11.91c1.28,-4.28 2.49,-8.59 4.07,-12.77c0.87,-2.29 1.83,-4.55 2.8,-6.8c0.09,-0.19 0.16,-0.39 0.24,-0.58c-2.58,4.43 -4.89,9.03 -6.75,13.81c-1.81,4.67 -3.08,9.64 -5.53,14.05c-1.12,2.01 -2.5,3.8 -4.34,5.19c-1.85,1.4 -3.96,2.38 -6.17,3.05c-4.77,1.46 -9.85,1.64 -14.8,1.76c-6.03,0.14 -12.06,0.26 -18.09,0.14c-3.23,-0.06 -6.44,-0.21 -9.65,-0.47c-2.84,-0.24 -5.74,-0.5 -8.53,-1.12c-3.8,-0.85 -7.29,-2.66 -9.81,-5.68c-2.46,-2.97 -3.92,-6.64 -5.23,-10.21c-3.8,-10.4 -8.54,-20.54 -15.12,-29.48c0.22,0.44 0.44,0.88 0.66,1.32c4.3,8.86 7.97,18.11 10.06,27.76c0.87,3.97 1.59,8.1 1.49,12.19c-0.09,3.54 -0.99,7.05 -3.31,9.81c-1.28,1.52 -2.9,2.66 -4.54,3.75c-1.73,1.14 -3.55,2.15 -5.49,2.88c-3.75,1.39 -7.77,1.39 -11,-1.19c-5.94,-4.72 -11.06,-10.37 -16.95,-15.14c-2.86,-2.32 -5.95,-4.41 -9.29,-5.97c-2.19,-1.02 -4.48,-1.77 -6.83,-2.29c6.03,2.8 11.46,6.8 16.31,11.31c2.56,2.38 4.97,4.91 7.25,7.54c2.13,2.46 4.24,4.98 6.02,7.71c1.52,2.34 3.05,5.17 2.67,8.06c-0.39,2.98 -2.95,5.14 -5.66,6.08c-2.83,0.99 -5.92,0.72 -8.84,0.3c-1.54,-0.22 -3.08,-0.5 -4.62,-0.71c-1.64,-0.23 -3.31,-0.36 -4.97,-0.44c-6.7,-0.34 -13.58,0.43 -19.44,3.86c0.6,-0.08 1.2,-0.17 1.81,-0.24c3.98,-0.48 7.99,-0.71 12,-0.44c2.49,0.17 4.99,0.48 7.45,0.93c4.15,0.77 8.42,1.96 12.04,4.19c1.61,0.99 3.14,2.25 4.11,3.89c0.94,1.61 1.19,3.47 0.78,5.29c-0.25,1.11 -0.68,2.17 -1.4,3.06c-0.82,1.02 -1.91,1.8 -3.03,2.46c-2.33,1.36 -4.94,2.21 -7.21,3.69c-2.63,1.71 -5.04,3.95 -6.83,6.53c-1.73,2.5 -2.89,5.47 -2.46,8.52c0.14,-0.26 0.29,-0.52 0.45,-0.77c2.44,-3.96 5.76,-7.53 9.64,-10.13c3.75,-2.5 8.47,-4.14 12.9,-2.5c2.05,0.76 3.61,2.19 4.92,3.92c1.44,1.91 2.55,4.07 3.5,6.26c0.79,1.81 1.68,3.76 1.44,5.79c-0.15,1.32 -0.86,2.44 -1.89,3.23c0.53,-0.12 1.06,-0.25 1.57,-0.4c1.52,-0.47 3.14,-1.13 4.12,-2.46c2.3,-3.08 -0.56,-6.85 -2.59,-9.18c-1.38,-1.6 -2.86,-3.11 -4.22,-4.72c-0.63,-0.74 -1.2,-1.47 -1.64,-2.33c-0.37,-0.73 -0.66,-1.58 -1.24,-2.17c-0.09,-0.09 -0.17,-0.18 -0.26,-0.25c0.87,-0.02 1.69,-0.88 2.14,-1.53c0.57,-0.81 0.9,-1.79 1.08,-2.76c0.22,-1.14 0.02,-2.23 -0.35,-3.32c-0.18,-0.56 -0.41,-1.11 -0.6,-1.66c-0.02,-0.06 -0.04,-0.14 -0.06,-0.21c1.36,0.81 3.43,0.26 4.81,-0.47c0.91,-0.49 1.69,-1.14 2.44,-1.85c0.87,-0.84 1.71,-1.79 2.34,-2.83c0.34,-0.55 0.62,-1.14 0.74,-1.77c0.02,-0.06 0.02,-0.11 0.03,-0.17c0.08,0.08 0.16,0.16 0.25,0.23c0.82,0.67 1.84,0.96 2.86,1.08c2.21,0.26 4.5,-0.36 6.6,-1c3.5,-1.08 7.09,-2.32 10.2,-4.3c0.86,-0.55 1.69,-1.19 2.3,-2.01c0.11,-0.15 0.22,-0.32 0.31,-0.5c0.16,0.22 0.34,0.43 0.53,0.63c1.1,1.11 2.78,1.36 4.23,1.76c3.23,0.89 6.56,1.52 9.9,1.73c2.33,0.14 4.65,0.4 6.99,0.51c3.37,0.15 6.74,0.16 10.11,0.08c0.05,0 0.09,0 0.13,0c0.05,0 0.09,0 0.13,0c3.38,0.08 6.75,0.07 10.12,-0.08c2.33,-0.11 4.65,-0.38 6.98,-0.51c3.36,-0.21 6.8,-0.35 10.05,-1.3c1.48,-0.43 2.98,-1.07 4.09,-2.18c0.19,-0.19 0.37,-0.41 0.53,-0.63c0.1,0.18 0.2,0.35 0.31,0.51c0.61,0.83 1.44,1.46 2.3,2.01c3.1,1.98 6.7,3.23 10.2,4.3c2.09,0.64 4.39,1.25 6.6,0.99c1.03,-0.12 2.05,-0.41 2.86,-1.08c0.09,-0.07 0.18,-0.15 0.26,-0.23z" fill="#CD8245" id="svg_18" opacity="0.5"/>
      <path d="m189.4,109.96c0.01,0.06 0.02,0.11 0.02,0.17c0.12,0.63 0.41,1.23 0.74,1.77c0.63,1.04 1.47,1.99 2.35,2.83c0.75,0.71 1.52,1.36 2.43,1.85c1.39,0.75 3.46,1.28 4.81,0.47c-0.02,0.07 -0.04,0.14 -0.06,0.21c-0.19,0.55 -0.43,1.1 -0.6,1.66c-0.35,1.09 -0.56,2.18 -0.34,3.32c0.18,0.97 0.51,1.95 1.08,2.76c0.45,0.65 1.28,1.51 2.15,1.53c-0.1,0.07 -0.18,0.16 -0.26,0.25c-0.57,0.59 -0.87,1.44 -1.24,2.17c-0.43,0.86 -1.01,1.59 -1.63,2.33c-1.36,1.61 -2.84,3.12 -4.23,4.72c-1.51,1.73 -3.47,4.26 -3.44,6.72c0.99,-0.52 1.93,-1.18 2.74,-1.82c1.88,-1.47 3.55,-3.17 5.22,-4.86c0.93,-0.94 1.81,-1.91 2.61,-2.96c0.86,-1.13 1.67,-2.29 2.56,-3.39c0.85,-1.05 1.78,-2.1 2.98,-2.76c1.09,-0.6 2.33,-0.85 3.56,-0.83c2.25,0.04 4.41,0.82 6.56,1.42c-2.24,-1.58 -5.06,-2.29 -7,-4.28c-1.03,-1.06 -1.6,-2.41 -1.82,-3.86c-0.24,-1.58 -0.42,-3.18 -0.35,-4.77c0.07,-1.5 0.37,-3.08 1.24,-4.34c0.88,-1.28 2.36,-2.1 3.74,-2.77c3.31,-1.6 6.94,-2.39 10.48,-3.27c0.4,-0.1 0.8,-0.22 1.2,-0.33c0.57,-0.26 1.16,-0.49 1.76,-0.67c0.71,-0.22 1.44,-0.4 2.17,-0.54c0.3,-0.1 0.59,-0.18 0.89,-0.27c1.81,-0.53 3.63,-1 5.48,-1.34c-0.36,-0.06 -0.71,-0.13 -1.08,-0.18c-3.02,-0.39 -6.11,-0.11 -9.1,0.43c-3.08,0.55 -6.11,1.4 -9.08,2.4c-1.33,0.44 -2.67,0.88 -3.96,1.44c-1.12,0.49 -2.25,0.99 -3.4,1.39c-1.83,0.63 -3.8,0.86 -5.44,-0.35c-0.98,-0.72 -1.72,-1.74 -2.33,-2.78c-0.63,-1.05 -1.16,-2.15 -1.51,-3.33c-0.63,-2.18 -0.59,-4.49 -0.04,-6.69c1.2,-4.82 4.45,-8.98 7.86,-12.46c0.82,-0.83 1.66,-1.64 2.53,-2.42c-0.82,0.58 -1.63,1.16 -2.43,1.76c-2.89,2.17 -5.65,4.52 -8.15,7.12c-2.16,2.23 -4.06,4.69 -6.29,6.85c-1.89,1.81 -4.12,3.45 -6.76,3.88c-2.92,0.47 -5.84,-0.56 -8.31,-2.07c-2.05,-1.24 -3.8,-2.94 -4.99,-5.03c-1.11,-1.96 -1.69,-4.16 -1.89,-6.39c-0.22,-2.39 -0.02,-4.81 0.39,-7.18c0.43,-2.48 1.09,-4.91 1.87,-7.3c0.45,-1.36 0.93,-2.7 1.44,-4.03c-0.79,1.48 -1.57,2.97 -2.33,4.46c-1.16,2.29 -2.3,4.59 -3.47,6.88c-1.08,2.15 -2.14,4.32 -3.36,6.39c-1.69,2.87 -3.84,5.46 -6.82,7.05c-3.66,1.95 -7.97,2.43 -12.02,2.97c-5.42,0.72 -10.9,1.08 -16.37,1.08c-4.26,0 -8.58,-0.14 -12.81,-0.71c-3.11,-0.43 -6.25,-1.24 -8.79,-3.16c-1.3,-0.98 -2.38,-2.2 -3.26,-3.57c-1.12,-1.76 -1.81,-3.7 -2.46,-5.66c-2.94,-8.93 -5.31,-18.08 -9.4,-26.55c0.91,2.41 1.82,4.81 2.68,7.22c1.09,3.1 2.1,6.23 2.91,9.4c0.79,3.13 1.42,6.32 1.64,9.56c0.2,2.89 0.08,5.84 -0.72,8.63c-0.75,2.62 -2.13,5.01 -4.16,6.84c-2.42,2.18 -5.54,3.41 -8.71,4.05c-1.83,0.38 -3.77,0.55 -5.6,0.07c-1.48,-0.39 -2.74,-1.24 -3.82,-2.3c-1.28,-1.28 -2.31,-2.78 -3.35,-4.25c-1.18,-1.68 -2.34,-3.37 -3.52,-5.05c-2.45,-3.47 -5.01,-6.9 -8.14,-9.79c-1.23,-1.14 -2.55,-2.17 -3.96,-3.06c2.65,2.69 5.12,5.54 7.41,8.53c1.77,2.31 3.41,4.7 4.92,7.18c1.18,1.93 2.26,3.92 3.32,5.91c0.96,1.8 1.89,3.67 2.37,5.67c0.19,0.84 0.31,1.73 0.17,2.6c-0.15,0.88 -0.68,1.64 -1.32,2.26c-1.52,1.46 -3.67,1.57 -5.63,1.12c-2.06,-0.48 -3.94,-1.51 -5.84,-2.42c-2.3,-1.09 -4.64,-2.13 -7.07,-2.9c-2.17,-0.69 -4.49,-1.23 -6.77,-1.03c0.36,0.22 0.73,0.45 1.1,0.66c4.39,2.5 9.4,3.96 13.15,7.47c1.61,1.52 2.83,3.39 3.5,5.51c0.62,1.95 0.75,4.26 -0.63,5.93c-1.09,1.32 -3.05,1.62 -4.64,1.83c-2.05,0.28 -4.12,0.31 -6.15,0.65c-2.21,0.37 -4.24,1.48 -6.07,2.7c-2.13,1.41 -4.02,3.16 -5.64,5.14c-1.18,1.44 -2.12,3.02 -2.97,4.68c-0.16,0.31 -0.31,0.63 -0.47,0.95c-0.2,1.04 -0.25,2.1 -0.1,3.18c0.07,-0.14 0.15,-0.27 0.23,-0.41c1.16,-2.7 2.86,-5.17 4.92,-7.27c2.48,-2.54 5.47,-4.57 8.76,-5.91c3.13,-1.28 6.68,-1.99 10.05,-1.56c1.34,0.17 2.64,0.55 3.84,1.17c0.02,0.01 0.04,0.02 0.06,0.04c-0.26,-0.55 -0.52,-1.09 -0.92,-1.52c-0.09,-0.09 -0.17,-0.18 -0.26,-0.25c0.87,-0.02 1.7,-0.88 2.15,-1.53c0.56,-0.81 0.89,-1.79 1.08,-2.76c0.22,-1.14 0.02,-2.23 -0.34,-3.32c-0.18,-0.56 -0.41,-1.11 -0.6,-1.66c-0.02,-0.06 -0.05,-0.14 -0.07,-0.21c1.36,0.81 3.43,0.27 4.81,-0.47c0.91,-0.49 1.69,-1.14 2.44,-1.85c0.88,-0.84 1.71,-1.79 2.35,-2.83c0.33,-0.55 0.62,-1.14 0.74,-1.77c0.01,-0.06 0.02,-0.11 0.02,-0.17c0.08,0.08 0.16,0.16 0.25,0.23c0.82,0.67 1.84,0.96 2.86,1.08c2.21,0.26 4.51,-0.36 6.6,-1c3.49,-1.08 7.09,-2.32 10.19,-4.3c0.86,-0.55 1.69,-1.19 2.3,-2.01c0.11,-0.15 0.22,-0.32 0.31,-0.5c0.16,0.22 0.35,0.43 0.53,0.63c1.11,1.11 2.78,1.36 4.24,1.76c3.23,0.89 6.56,1.52 9.9,1.73c2.33,0.14 4.65,0.4 6.98,0.51c3.37,0.16 6.75,0.16 10.12,0.08c0.04,0 0.09,0 0.13,0c0.04,0 0.09,0 0.13,0c3.37,0.08 6.75,0.08 10.11,-0.08c2.33,-0.11 4.65,-0.38 6.99,-0.51c3.35,-0.2 6.79,-0.35 10.04,-1.3c1.48,-0.43 2.98,-1.07 4.09,-2.18c0.19,-0.19 0.38,-0.4 0.54,-0.63c0.09,0.18 0.2,0.35 0.31,0.5c0.61,0.83 1.44,1.46 2.29,2.01c3.11,1.98 6.7,3.23 10.2,4.3c2.09,0.64 4.39,1.26 6.6,1c1.04,-0.12 2.05,-0.41 2.86,-1.08c0.09,-0.07 0.18,-0.15 0.26,-0.23z" fill="#9D5731" id="svg_19" opacity="0.5"/>
      <path d="m66.84,83.23c-1.06,-1.52 -2.16,-2.98 -3.38,-4.36c-1.24,-1.41 -2.54,-2.78 -3.84,-4.13c-2.65,-2.75 -5.55,-5.27 -8.63,-7.54c-6.08,-4.51 -13.1,-8.02 -20.56,-9.56c-2.08,-0.43 -4.18,-0.71 -6.31,-0.81c-2.14,-0.11 -4.5,-0.06 -6.56,0.6c-0.25,0.08 -0.8,0.67 -0.27,0.79c0.86,0.19 1.74,0.22 2.62,0.33c0.89,0.1 1.77,0.2 2.66,0.29c1.77,0.18 3.53,0.47 5.27,0.85c3.58,0.76 7.08,1.91 10.44,3.39c6.84,3 13.15,7.17 18.82,12.04c3.15,2.7 6.01,5.72 8.79,8.79c0.37,0.42 1.28,-0.19 0.95,-0.67z" fill="#CB8636" id="svg_20" opacity="0.5"/>
      <path d="m81.57,106.19c-0.12,-0.49 -0.26,-0.98 -0.41,-1.47c-0.28,-0.95 -0.59,-1.9 -0.92,-2.84c-0.67,-1.89 -1.45,-3.75 -2.29,-5.57c-1.71,-3.67 -3.71,-7.21 -5.98,-10.58c-4.46,-6.61 -9.81,-12.48 -15.69,-17.85c-1.51,-1.37 -3.08,-2.75 -4.81,-3.84c-0.84,-0.52 -1.74,-1 -2.66,-1.39c-0.97,-0.41 -1.99,-0.58 -3.02,-0.79c-0.35,-0.07 -0.89,0.52 -0.42,0.67c0.82,0.26 1.55,0.75 2.27,1.21c0.72,0.47 1.43,0.94 2.09,1.48c1.41,1.12 2.74,2.3 4.04,3.53c2.78,2.59 5.5,5.26 8.05,8.09c5.24,5.81 10.05,12.18 13.88,19.02c1.09,1.94 2.09,3.92 2.98,5.96c0.43,1 0.84,2.01 1.22,3.03c0.18,0.51 0.36,1.01 0.53,1.52c0.18,0.54 0.44,1.03 0.63,1.56c0.15,0.4 0.77,0.04 0.71,-0.31c-0.08,-0.47 -0.1,-0.97 -0.22,-1.44z" fill="#CB8636" id="svg_21" opacity="0.5"/>
      <path d="m106.21,98.08c-0.06,-1.6 -0.17,-3.2 -0.31,-4.8c-0.28,-3.16 -0.86,-6.28 -1.4,-9.41c-0.98,-5.66 -1.89,-11.34 -3.61,-16.83c-0.95,-3.03 -2.4,-5.81 -3.99,-8.55c-0.24,-0.42 -1,0.14 -0.8,0.56c1.24,2.55 1.97,5.37 2.73,8.1c0.76,2.74 1.4,5.5 1.97,8.29c1.16,5.75 2.07,11.57 3.06,17.36c0.11,0.68 0.23,1.36 0.35,2.05c-0.18,-0.94 -0.38,-1.88 -0.54,-2.8c-0.47,-2.71 -0.79,-5.45 -1.41,-8.14c-0.63,-2.71 -1.43,-5.39 -2.16,-8.08c-0.75,-2.74 -1.49,-5.48 -2.27,-8.22c-3,-10.6 -6.62,-21.11 -11.56,-30.97c-1.06,-2.13 -2.19,-4.24 -3.59,-6.15c-0.75,-1.02 -1.55,-1.96 -2.48,-2.82c-0.86,-0.8 -1.93,-1.32 -2.94,-1.89c-0.44,-0.26 -1.27,0.46 -0.77,0.8c0.83,0.56 1.39,1.39 1.97,2.18c0.64,0.85 1.26,1.71 1.82,2.62c1.14,1.84 2.12,3.78 3.05,5.72c1.07,2.21 2.14,4.41 3.11,6.68c1.08,2.51 2.08,5.05 3.04,7.61c3.9,10.33 6.77,20.97 10.01,31.5c0.91,2.96 1.48,5.95 2.09,8.99c0.56,2.79 1.52,5.49 1.89,8.32c0.07,0.58 0.93,0.02 0.99,-0.32c0.18,-1.14 0.14,-2.29 0,-3.43c0.08,0.51 0.15,1.02 0.21,1.53c0.22,1.82 0.28,3.66 0.47,5.48c0.06,0.6 1.03,0.06 1.07,-0.35c0.17,-1.67 0.08,-3.35 0.02,-5.01z" fill="#CB8636" id="svg_22" opacity="0.5"/>
      <path d="m67.77,110.95c-1.5,-1.48 -3.49,-2.57 -5.31,-3.6c-1.9,-1.08 -3.9,-2.03 -5.91,-2.89c-2.01,-0.86 -4.1,-1.56 -6.19,-2.22c-2.09,-0.67 -4.2,-1.28 -6.34,-1.75c-4.32,-0.95 -8.74,-1.29 -13.15,-0.75c-4.45,0.54 -8.63,2.09 -12.71,3.92c-2.09,0.94 -4.12,1.95 -5.93,3.4c-1.72,1.37 -3.19,2.96 -4.72,4.54c-0.36,0.38 0.1,0.75 0.48,0.47c1.52,-1.09 2.98,-2.25 4.51,-3.32c1.51,-1.06 3.07,-1.92 4.77,-2.64c3.83,-1.63 7.71,-3.21 11.84,-3.9c8.38,-1.41 16.79,0.99 24.6,3.88c2.21,0.82 4.38,1.75 6.49,2.81c1.06,0.53 2.13,1.04 3.17,1.58c1.09,0.56 2.18,1.17 3.35,1.56c0.46,0.16 1.53,-0.59 1.04,-1.08z" fill="#CB8636" id="svg_23" opacity="0.5"/>
      <path d="m69.96,109.74c-0.45,-0.87 -1.5,-1.52 -2.28,-2.08c-0.82,-0.59 -1.66,-1.14 -2.55,-1.64c-0.87,-0.49 -1.77,-0.9 -2.73,-1.23c-1.03,-0.35 -2.08,-0.51 -3.15,-0.65c-0.38,-0.05 -0.86,0.59 -0.38,0.78c1.76,0.67 3.43,1.72 4.98,2.78c0.76,0.52 1.5,1.08 2.23,1.63c0.82,0.62 1.68,1.4 2.68,1.66c0.66,0.17 1.55,-0.56 1.2,-1.25z" fill="#CB8636" id="svg_24" opacity="0.5"/>
      <path d="m55.52,124.84c-0.72,0.09 -1.44,0.42 -2.11,0.7c-0.73,0.3 -1.44,0.63 -2.15,0.99c-1.55,0.77 -3.05,1.65 -4.45,2.66c-2.75,1.99 -5.35,4.48 -6.84,7.57c-0.76,1.59 -1.26,3.45 -0.8,5.19c0.13,0.51 0.87,0.13 0.97,-0.21c0.43,-1.43 0.87,-2.87 1.57,-4.2c0.74,-1.39 1.54,-2.45 2.6,-3.58c1.14,-1.22 2.13,-2.04 3.46,-3.02c1.29,-0.95 2.62,-1.84 3.96,-2.7c0.7,-0.45 1.4,-0.87 2.11,-1.3c0.69,-0.43 1.42,-0.82 2.03,-1.36c0.38,-0.34 0.11,-0.82 -0.35,-0.75z" fill="#CB8636" id="svg_25" opacity="0.5"/>
      <path d="m56.87,127.03c-2.07,0.91 -4.08,2 -5.99,3.21c-1.93,1.2 -3.63,2.63 -5.25,4.22c-0.48,0.47 0.22,0.82 0.64,0.43c3.19,-3.02 7.46,-4.42 11.07,-6.8c0.69,-0.45 0.36,-1.44 -0.48,-1.07z" fill="#CB8636" id="svg_26" opacity="0.5"/>
      <path d="m193.76,24.14c-1.24,2.21 -2.99,4.16 -4.57,6.14c-1.61,2.05 -3,4.2 -4.26,6.48c-1.28,2.31 -2.44,4.69 -3.65,7.03c-1.22,2.38 -2.4,4.79 -3.52,7.22c-2.21,4.77 -4.28,9.64 -5.96,14.62c-1.69,5.01 -2.99,10.14 -4.09,15.33c-0.63,2.96 -0.92,5.93 -1.07,8.95c-0.07,1.47 -0.13,2.94 -0.21,4.41c-0.04,0.75 -0.04,1.49 -0.08,2.24c-0.04,0.74 -0.1,1.46 -0.06,2.21c0.04,0.6 0.72,0.4 1.01,0.06c0,0.06 -0.01,0.13 -0.02,0.19c-0.05,1.08 -0.2,2.41 0.39,3.37c0.37,0.6 1.32,-0.02 1.48,-0.49c0.32,-0.94 0.24,-1.97 0.28,-2.94c0.04,-0.99 0.13,-1.98 0.24,-2.97c0.24,-2 0.6,-3.99 0.98,-5.97c0.75,-3.94 1.55,-7.87 2.33,-11.8c0.45,-2.24 0.83,-4.49 1.57,-6.64c0.11,-0.35 -0.43,-0.26 -0.52,-0.01c-0.71,2.02 -1.59,3.99 -2.27,6.02c-0.67,1.97 -1.22,3.94 -1.72,5.95c-0.29,1.16 -0.55,2.33 -0.79,3.51c0.19,-1.44 0.42,-2.87 0.71,-4.29c0.51,-2.55 1.24,-5.09 1.94,-7.6c0.71,-2.58 1.42,-5.14 2.25,-7.69c1.6,-4.96 3.53,-9.8 5.65,-14.56c2.11,-4.71 4.45,-9.31 6.64,-13.98c1.19,-2.55 2.5,-5.05 3.97,-7.44c1.44,-2.34 2.79,-4.7 4.09,-7.12c0.3,-0.56 -0.51,-0.65 -0.75,-0.22z" fill="#CB8636" id="svg_27" opacity="0.5"/>
      <path d="m237.89,60.28c-2.09,0.71 -4.2,1.31 -6.27,2.13c-1.95,0.79 -3.84,1.68 -5.7,2.67c-3.8,2.01 -7.37,4.36 -10.74,7.04c-3.45,2.76 -6.64,5.81 -9.59,9.11c-3.32,3.71 -6.45,7.63 -9.28,11.73c-1.4,2.04 -2.78,4.09 -3.92,6.31c-0.59,1.16 -1.12,2.35 -1.53,3.59c-0.39,1.16 -0.67,2.36 -0.47,3.59c0.03,0.17 0.15,0.28 0.3,0.35c-0.04,0.19 -0.07,0.39 -0.1,0.59c-0.03,0.35 0.27,0.58 0.59,0.59c0.39,0.02 0.76,-0.24 0.98,-0.55c1.15,-1.7 1.92,-3.68 2.88,-5.49c0.95,-1.81 2.03,-3.56 3.17,-5.26c2.28,-3.39 4.85,-6.55 7.53,-9.62c1.49,-1.71 2.91,-3.52 4.58,-5.06c0.31,-0.29 -0.13,-0.51 -0.39,-0.27c-1.6,1.4 -3.35,2.64 -4.91,4.09c-0.3,0.27 -0.59,0.55 -0.88,0.83c0.85,-1.05 1.72,-2.09 2.61,-3.13c5.47,-6.35 11.55,-11.63 18.67,-16.04c1.95,-1.21 3.96,-2.3 6.01,-3.34c2.16,-1.1 4.37,-2.24 6.64,-3.06c0.59,-0.21 0.47,-1.02 -0.2,-0.79z" fill="#CB8636" id="svg_28" opacity="0.5"/>
      <path d="m250.09,104.11c-1.48,-0.49 -2.86,-1.21 -4.34,-1.67c-1.48,-0.46 -2.98,-0.72 -4.52,-0.85c-3.11,-0.26 -6.23,-0.16 -9.35,0.06c-6.03,0.42 -12.01,1.14 -17.76,3.04c-3.18,1.05 -6.29,2.46 -8.83,4.68c-0.57,0.5 -0.01,1.13 0.62,0.88c2.61,-1.08 5.17,-2.28 7.83,-3.21c2.63,-0.92 5.37,-1.57 8.11,-2.07c2.8,-0.51 5.63,-0.82 8.47,-1.06c2.99,-0.26 6,-0.44 9,-0.35c1.67,0.05 3.34,0.15 4.97,0.48c1.75,0.35 3.49,0.66 5.25,0.93c0.44,0.06 1.16,-0.66 0.54,-0.86z" fill="#CB8636" id="svg_29" opacity="0.5"/>
      <path d="m210.19,108.97c-2.46,0.33 -4.61,1.69 -6.64,3.03c-0.3,0.2 -0.06,0.53 0.24,0.34c0.97,-0.6 2.03,-0.98 3.11,-1.37c1.04,-0.38 2.13,-0.66 3.22,-0.94c0.3,-0.08 0.62,-0.32 0.63,-0.66c0.02,-0.34 -0.29,-0.43 -0.57,-0.4z" fill="#CB8636" id="svg_30" opacity="0.5"/>
      <path d="m227.66,137.3c-0.27,-1.71 -1.22,-3.32 -2.25,-4.69c-1.17,-1.52 -2.62,-2.9 -4.19,-4c-3.15,-2.2 -7.17,-3.73 -11.02,-3.82c-2.13,-0.06 -4.21,0.31 -6.02,1.5c-0.43,0.28 -0.4,1.01 0.23,0.88c2.97,-0.63 5.95,-0.39 8.83,0.47c-0.87,-0.22 -1.77,-0.31 -2.63,-0.38c-1.82,-0.11 -3.65,0.1 -5.47,0.19c-0.37,0.02 -0.78,0.67 -0.24,0.69c1.67,0.1 3.35,0.2 5,0.44c1.68,0.25 3.28,0.7 4.85,1.34c0.56,0.23 1.46,-0.67 0.89,-1.14c-0.49,-0.4 -1.04,-0.69 -1.63,-0.91c0.02,0.01 0.03,0.02 0.05,0.02c3.43,1.2 6.69,3.18 9.33,5.66c1.33,1.25 2.36,2.74 3.27,4.31c0.29,0.5 1.08,-0.14 1.01,-0.57z" fill="#CB8636" id="svg_31" opacity="0.5"/>
     </g>
    </g>
    <path d="m114.54,76.83c-0.27,-1.45 -0.65,-2.9 -1.08,-4.31c-0.45,-1.49 -0.95,-2.98 -1.55,-4.42c-0.36,-0.87 -0.72,-1.97 -1.4,-2.68c-0.78,-0.82 -2.17,-0.12 -2.5,0.83c-0.8,2.27 -0.21,4.69 0.35,7.02c0.06,0.32 0.11,0.63 0.17,0.95c0.15,0.8 0.31,1.63 0.5,2.45c0.28,1.71 0.64,3.53 1.6,4.93c0.05,0.1 0.09,0.2 0.14,0.3c0.41,0.8 1.05,1.5 2.05,1.28c1.28,-0.28 1.92,-1.52 2.03,-2.72c0.12,-1.2 -0.08,-2.46 -0.3,-3.63z" fill="#DA8A4A" id="svg_32" opacity="0.5"/>
    <path d="m120.62,69.57c-0.02,-0.14 -0.08,-0.28 -0.14,-0.41c-0.01,-0.02 -0.01,-0.03 -0.02,-0.05c-0.02,-0.14 -0.02,-0.28 -0.06,-0.42c-0.1,-0.42 -0.57,-0.58 -0.95,-0.53c-0.06,-0.05 -0.18,-0.05 -0.24,-0.02c-0.09,0.03 -0.17,0.09 -0.21,0.17c-0.09,0.04 -0.17,0.09 -0.25,0.14c-0.24,0.15 -0.49,0.45 -0.58,0.73c-0.1,0.33 -0.16,0.69 -0.03,1.02c0.05,0.14 0.11,0.28 0.19,0.4c0.01,0.02 0.03,0.04 0.05,0.06c0.02,0.12 0.03,0.23 0.04,0.35c0.01,0.18 0.02,0.35 0.05,0.52c0,0.01 0,0.01 0,0.01c0,0.03 0,0.07 0.01,0.1c0,0 0.01,0 0.01,-0.01c0.02,0.06 0.04,0.13 0.07,0.18c0.12,0.16 0.35,0.26 0.54,0.26c0.51,-0.01 0.95,-0.35 1.16,-0.81c0.1,-0.23 0.13,-0.49 0.18,-0.73c0.01,-0.06 0.02,-0.12 0.03,-0.18c0.02,-0.05 0.05,-0.09 0.07,-0.14c0.1,-0.22 0.13,-0.4 0.09,-0.64z" fill="#DA8A4A" id="svg_33" opacity="0.5"/>
    <path d="m154.26,66.46c-0.12,-0.76 -0.32,-1.52 -0.9,-2.06c-0.5,-0.46 -1.56,-0.01 -1.89,0.42c-0.57,0.72 -0.88,1.56 -1.1,2.45c-0.06,0.21 -0.1,0.43 -0.15,0.64c-0.15,0.59 -0.27,1.19 -0.39,1.77c-0.35,1.67 -0.68,3.63 -0.3,5.31c0.18,0.75 0.65,1.4 1.48,1.43c0.99,0.03 1.85,-0.63 2.33,-1.45c0.91,-1.55 1.04,-3.58 1.08,-5.34c0.02,-1.06 -0.02,-2.13 -0.18,-3.17z" fill="#DA8A4A" id="svg_34" opacity="0.5"/>
    <path d="m160.78,66.01c-0.02,-0.1 -0.07,-0.18 -0.13,-0.25c0.01,-0.02 0.01,-0.03 0.02,-0.05c0.03,-0.07 0.04,-0.14 0.02,-0.22c0,-0.07 -0.02,-0.14 -0.06,-0.2c-0.03,-0.03 -0.06,-0.06 -0.1,-0.1c-0.06,-0.05 -0.14,-0.07 -0.21,-0.07c-0.06,-0.02 -0.1,-0.02 -0.16,-0.01c-0.09,0.01 -0.18,0.02 -0.25,0.06c-0.06,0.03 -0.11,0.06 -0.17,0.1c-0.1,0.07 -0.19,0.16 -0.26,0.26c-0.01,0.01 -0.01,0.02 -0.02,0.03c-0.22,0.09 -0.44,0.22 -0.6,0.4c-0.14,0.14 -0.25,0.31 -0.32,0.51c-0.06,0.17 -0.07,0.35 -0.03,0.52c0.01,0.04 0.02,0.09 0.02,0.13c0.02,0.12 0.09,0.22 0.18,0.29c0.03,0.04 0.07,0.06 0.1,0.1c0,-0.01 -0.01,-0.01 -0.02,-0.01c0.01,0 0.02,0 0.02,0.01c0.06,0.04 0.11,0.07 0.19,0.09c0,0 0,0 0,0c0,0 -0.01,0 -0.01,0c0.07,0.02 0.14,0.03 0.26,0.04c0.18,0 0.39,-0.05 0.55,-0.12c0.01,0 0.01,0 0.02,-0.01c0.1,-0.03 0.18,-0.08 0.26,-0.14c0.1,-0.07 0.19,-0.16 0.27,-0.25c0.02,-0.03 0.05,-0.06 0.08,-0.1c0.02,-0.03 0.05,-0.06 0.06,-0.09c0.01,0 0.01,-0.01 0.01,-0.01c0,-0.01 0.01,-0.01 0.01,-0.01c0.09,-0.12 0.17,-0.25 0.22,-0.39c0.06,-0.17 0.07,-0.34 0.03,-0.51z" fill="#DA8A4A" id="svg_35" opacity="0.5"/>
    <path d="m179.27,80.34c-0.3,-0.4 -0.99,-0.45 -1.4,-0.22c-1.3,0.72 -2.06,2.01 -2.43,3.42c-0.06,0.26 -0.13,0.55 -0.18,0.84c-0.01,0.02 -0.02,0.04 -0.02,0.06c-0.46,1.43 -0.79,3.16 -0.3,4.63c0.21,0.63 0.88,0.62 1.4,0.43c1.68,-0.6 2.67,-2.63 3.16,-4.21c0.47,-1.49 0.79,-3.59 -0.22,-4.95z" fill="#DA8A4A" id="svg_36" opacity="0.5"/>
    <g id="svg_37" opacity="0.5">
     <path d="m183.74,84.38c0.01,0.02 0.02,0.04 0.02,0.06c-0.01,-0.02 -0.01,-0.04 -0.02,-0.06c0,0 0,0 0,0z" fill="#DA8A4A" id="svg_38"/>
     <path d="m183.84,84.58c0,0 0,0 0,0c0,0.01 0,0.01 0,0.01c0,0 0,-0.01 0,-0.01z" fill="#DA8A4A" id="svg_39"/>
     <path d="m183.84,84.59c0,0.02 0,0.03 0,0.05c-0.02,-0.1 -0.08,-0.18 -0.18,-0.25c0.02,0.01 -0.03,-0.14 -0.08,-0.17c-0.13,-0.1 -0.3,-0.13 -0.47,-0.14c0,0 0,0 0,0c-0.1,-0.01 -0.18,0 -0.28,0.02c-0.09,0.03 -0.18,0.06 -0.28,0.1c-0.09,0.05 -0.18,0.1 -0.27,0.15c-0.05,0.03 -0.09,0.06 -0.13,0.1c-0.02,0.02 -0.09,0.07 -0.12,0.11c-0.04,0.04 -0.09,0.1 -0.11,0.14c-0.1,0.14 -0.14,0.18 -0.22,0.38c-0.05,0.12 -0.06,0.25 -0.04,0.37c-0.01,0.12 0.03,0.23 0.1,0.34c0.06,0.06 0.11,0.11 0.17,0.17c0.1,0.07 0.22,0.11 0.35,0.11c0.09,0.02 0.18,0.03 0.26,0.01c0.15,-0.01 0.29,-0.04 0.43,-0.1c0.09,-0.06 0.18,-0.1 0.27,-0.16c0.18,-0.12 0.32,-0.26 0.43,-0.44c0.03,-0.05 0.05,-0.1 0.07,-0.15c0,0 0.01,-0.01 0.01,-0.01c0.02,-0.04 0.05,-0.09 0.06,-0.13c0.02,-0.09 0.03,-0.17 0.05,-0.25c0.01,-0.09 0,-0.18 -0.02,-0.25z" fill="#DA8A4A" id="svg_40"/>
     <path d="m183.77,84.44c0.03,0.05 0.06,0.1 0.07,0.14c0,0 0,0 0,0c-0.02,-0.05 -0.05,-0.1 -0.07,-0.14z" fill="#DA8A4A" id="svg_41"/>
    </g>
    <path d="m206.68,91.96c-0.04,-0.02 -0.08,-0.02 -0.12,-0.04c0.02,-0.02 0.06,-0.04 0.08,-0.06c0.2,-0.07 0.39,-0.25 0.42,-0.45c0.04,-0.22 -0.1,-0.42 -0.33,-0.41c-0.02,0 -0.04,0.01 -0.06,0.01c-0.12,-0.06 -0.26,-0.08 -0.4,-0.05c-1.2,0.3 -2.18,1.11 -3.01,2.01c-0.94,1.01 -1.76,2.14 -2.33,3.39c-0.23,0.49 -0.44,1.08 -0.42,1.63c0.02,0.51 0.35,0.87 0.87,0.87c1.55,0.02 2.96,-1.13 3.96,-2.21c0.5,-0.54 0.96,-1.13 1.32,-1.78c0.34,-0.6 0.64,-1.29 0.66,-2c0.01,-0.44 -0.22,-0.75 -0.63,-0.9z" fill="#DA8A4A" id="svg_42" opacity="0.5"/>
    <path d="m203.22,101.18c-0.03,-0.13 -0.1,-0.22 -0.21,-0.3c-0.02,-0.02 -0.04,-0.03 -0.06,-0.05c-0.06,-0.03 -0.13,-0.06 -0.18,-0.09c-0.11,-0.03 -0.22,-0.04 -0.34,-0.02c-0.04,0 -0.09,0.01 -0.14,0.01c-0.02,0.01 -0.03,0.01 -0.06,0.01c-0.06,0.01 -0.09,0.02 -0.16,0.04c-0.06,0.02 -0.11,0.04 -0.17,0.06c0,0 -0.01,0.01 -0.01,0.01c-0.02,0.01 -0.05,0.02 -0.06,0.02c-0.02,0 -0.02,0.01 -0.03,0.01c-0.08,0.04 -0.16,0.09 -0.23,0.14c-0.06,0.04 -0.11,0.09 -0.17,0.14c-0.1,0.1 -0.18,0.23 -0.23,0.38c-0.04,0.12 -0.05,0.25 -0.02,0.38c0.02,0.06 0.04,0.1 0.07,0.14c0.02,0.03 0.05,0.06 0.07,0.08c0,0 0,0 0,0c0,0 0,0 0,0c0.02,0.02 0.04,0.05 0.06,0.06c0,0 0.01,0 0.02,0.01c0.03,0.02 0.07,0.04 0.11,0.06c0.08,0.05 0.18,0.08 0.27,0.09c0.03,0.01 0.07,0.01 0.11,0.02c0.01,0 0.02,0 0.02,0c0.02,0.01 0.03,0.01 0.05,0.01c0.01,0 0.02,0 0.02,0c0.05,0.01 0.09,0.01 0.13,-0.01c0.13,0 0.24,-0.03 0.36,-0.09c0.03,-0.02 0.06,-0.03 0.1,-0.05c0.16,-0.07 0.3,-0.17 0.41,-0.29c0.11,-0.11 0.19,-0.24 0.24,-0.39c0.05,-0.13 0.06,-0.26 0.02,-0.39z" fill="#DA8A4A" id="svg_43" opacity="0.5"/>
    <path d="m214.18,111.45c-0.1,-0.3 -0.28,-0.45 -0.56,-0.57c-0.01,-0.09 -0.05,-0.18 -0.14,-0.23c-0.13,-0.08 -0.35,-0.19 -0.51,-0.18c0,0 0.12,0.05 0.04,0.02c-0.05,-0.02 -0.1,-0.04 -0.14,-0.06c-0.03,-0.02 -0.06,-0.03 -0.1,-0.04c-0.14,-0.05 -0.29,-0.05 -0.43,-0.05c-0.61,0 -1.16,0.15 -1.73,0.35c-1.04,0.37 -2.17,0.95 -2.88,1.83c-0.42,0.52 -0.75,1.15 -0.59,1.84c0.12,0.5 0.51,0.85 1.01,0.96c0.63,0.15 1.25,-0.02 1.85,-0.22c0.44,-0.15 0.85,-0.36 1.25,-0.59c0.54,-0.3 1.07,-0.61 1.56,-0.98c0.44,-0.34 0.89,-0.7 1.2,-1.17c0.15,-0.23 0.28,-0.63 0.18,-0.91z" fill="#DA8A4A" id="svg_44" opacity="0.5"/>
    <path d="m96.37,87.49c-0.15,-1.59 -0.63,-3.37 -1.64,-4.65c-0.55,-0.71 -1.27,-1.18 -2.18,-1.26c-0.52,-0.05 -1.12,0.35 -1.39,0.79c-0.46,0.74 -0.55,1.66 -0.46,2.57c-0.16,1.1 0.07,2.31 0.39,3.3c0.47,1.53 1.24,3.11 2.5,4.15c0.35,0.29 1.06,0.12 1.38,-0.14c1.41,-1.2 1.57,-3.01 1.41,-4.76z" fill="#DA8A4A" id="svg_45" opacity="0.5"/>
    <path d="m85.03,91.43c0.03,-0.28 -0.06,-0.56 -0.13,-0.83c-0.03,-0.07 -0.06,-0.15 -0.1,-0.22c-0.06,-0.1 -0.16,-0.18 -0.28,-0.22c-0.2,-0.1 -0.43,-0.11 -0.65,-0.06c-0.04,0.01 -0.07,0.03 -0.11,0.04c-0.01,-0.01 -0.01,-0.02 -0.02,-0.02c-0.09,-0.06 -0.22,-0.08 -0.33,-0.05c-0.25,0.06 -0.49,0.26 -0.51,0.53c-0.01,0.06 -0.02,0.12 -0.02,0.18c-0.06,0.09 -0.11,0.18 -0.15,0.27c-0.09,0.23 -0.07,0.46 -0.03,0.7c0.02,0.1 0.06,0.18 0.12,0.26c0,0.01 0,0.02 0.01,0.03c0.01,0.04 0.03,0.07 0.05,0.11c0.02,0.14 0.03,0.27 0.06,0.41c0.02,0.06 0.06,0.12 0.08,0.18c0.04,0.04 0.09,0.09 0.14,0.13c0.14,0.1 0.32,0.12 0.49,0.1c0.37,-0.04 0.71,-0.26 0.91,-0.57c0.02,-0.03 0.05,-0.06 0.06,-0.1c0.08,-0.09 0.16,-0.18 0.22,-0.29c0.11,-0.2 0.19,-0.37 0.21,-0.6z" fill="#DA8A4A" id="svg_46" opacity="0.5"/>
    <path d="m72.15,103.81c-0.02,-0.22 -0.12,-0.43 -0.22,-0.63c-0.19,-0.35 -0.52,-0.63 -0.85,-0.85c-0.14,-0.1 -0.3,-0.18 -0.45,-0.26c-0.22,-0.11 -0.44,-0.2 -0.71,-0.18c-0.1,0.01 -0.2,0.02 -0.3,0.04c-0.2,-0.22 -0.41,-0.43 -0.62,-0.63c0.04,0.04 0.08,0.08 0.13,0.12c-0.04,-0.04 -0.06,-0.07 -0.09,-0.12c-0.05,-0.08 -0.13,-0.14 -0.2,-0.22c-0.09,-0.08 -0.29,-0.11 -0.4,-0.11c-0.21,-0.01 -0.41,0.06 -0.59,0.16c-0.16,0.1 -0.29,0.2 -0.4,0.35c-0.1,0.14 -0.22,0.34 -0.22,0.53c0.02,0.49 0.12,0.91 0.34,1.34c0.18,0.35 0.44,0.65 0.72,0.92c0.55,0.54 1.16,0.95 1.81,1.37c0.7,0.45 1.77,-0.17 1.99,-0.89c0.1,-0.33 0.12,-0.6 0.08,-0.94z" fill="#DA8A4A" id="svg_47" opacity="0.5"/>
    <path d="m60.13,115.11c-0.01,-0.02 -0.02,-0.02 -0.02,-0.03c-0.03,-0.04 -0.11,-0.13 -0.18,-0.17c-0.06,-0.03 -0.13,-0.06 -0.19,-0.09c-0.12,-0.04 -0.23,-0.05 -0.35,-0.02c-0.09,0 -0.17,0.02 -0.25,0.06c-0.09,0.02 -0.18,0.06 -0.26,0.1c-0.01,0.01 -0.02,0.02 -0.03,0.02c-0.01,0.01 -0.02,0.01 -0.02,0.02c-0.02,0.01 -0.06,0 -0.09,0.02c-0.07,0.02 -0.14,0.05 -0.22,0.1l-0.12,0.1c-0.06,0.06 -0.1,0.11 -0.13,0.18c-0.02,0.04 -0.04,0.08 -0.04,0.13c-0.02,0.06 -0.02,0.13 0,0.19c0,0 0,0.01 0.01,0.02c-0.05,0.14 -0.07,0.32 -0.03,0.47c0.01,0.01 0.01,0.02 0.01,0.03c0.02,0.07 0.05,0.14 0.09,0.21c0.09,0.12 0.2,0.2 0.35,0.24c0.15,0.04 0.31,0.04 0.47,0.01c0.18,-0.04 0.35,-0.11 0.5,-0.22c0.01,0 0.02,-0.01 0.03,-0.02c0,0 0,-0.01 0.01,-0.01c0.07,-0.06 0.16,-0.14 0.22,-0.19c0.01,-0.01 0.02,-0.02 0.02,-0.02c0.11,-0.11 0.24,-0.3 0.29,-0.46c0.02,-0.08 0.03,-0.16 0.05,-0.24c0.01,-0.15 -0.03,-0.29 -0.11,-0.42z" fill="#DA8A4A" id="svg_48" opacity="0.5"/>
    <g id="svg_49">
     <path d="m142.64,73.85c-0.03,-1.67 -0.17,-3.36 -0.54,-5c-0.25,-1.11 -0.6,-2.46 -1.55,-3.19c-0.43,-0.33 -1.23,-0.03 -1.52,0.35c-0.13,0.15 -0.24,0.32 -0.35,0.49c-0.06,-0.02 -0.13,-0.06 -0.19,-0.08c-0.23,-0.08 -0.5,0.1 -0.63,0.28c-0.47,0.67 -0.65,1.57 -0.8,2.44c-0.22,1.24 -0.34,2.5 -0.41,3.76c-0.14,2.5 -0.2,5.19 0.43,7.64c0.18,0.74 0.48,1.65 1.19,2.06c0.93,0.54 2.08,-0.09 2.7,-0.81c0.83,-0.95 1.14,-2.25 1.36,-3.46c0.27,-1.47 0.34,-2.98 0.31,-4.48zm-3.1,7.06c-0.02,0.02 -0.03,0.05 -0.05,0.07c-0.02,-0.02 -0.03,-0.02 -0.05,-0.04c0,0 -0.01,0 -0.01,0c-0.01,-0.01 -0.01,-0.02 -0.02,-0.03c-0.05,-0.06 -0.1,-0.12 -0.14,-0.18c-0.02,-0.02 -0.03,-0.05 -0.04,-0.07c0.18,-0.02 0.36,-0.1 0.53,-0.18c-0.01,0.02 -0.02,0.05 -0.02,0.06c0,0.01 0,0.01 0,0.02c-0.02,0.04 -0.05,0.08 -0.07,0.12c-0.04,0.08 -0.1,0.16 -0.14,0.23z" fill="#9D5731" id="svg_50" opacity="0.19"/>
     <path d="m139.39,81.06c-0.01,0 -0.01,0 -0.02,0c0,0 0.01,0 0.02,0z" fill="#DA8A4A" id="svg_51"/>
    </g>
    <path d="m158.62,78.41c-0.13,-0.13 -0.3,-0.19 -0.47,-0.22c0,0 0,-0.01 0,-0.02c0.02,-0.06 0.05,-0.13 0.08,-0.19c0,-0.02 0.05,-0.1 0.06,-0.13c0.06,-0.12 0.13,-0.24 0.2,-0.35c0.14,-0.21 0.13,-0.51 -0.12,-0.63c-0.26,-0.12 -0.58,0.02 -0.77,0.22c-1.01,1.04 -1.48,2.46 -1.43,3.89c0.02,0.37 0.21,0.63 0.59,0.69c0.42,0.06 0.83,-0.14 1.12,-0.43c0.55,-0.55 0.93,-1.36 0.97,-2.14c0.01,-0.26 -0.04,-0.5 -0.23,-0.69z" fill="#DA8A4A" id="svg_52"/>
    <path d="m192.35,80.98c-0.99,0.11 -1.87,0.83 -2.54,1.49c-0.08,0.07 -0.14,0.16 -0.22,0.23c-0.12,0.11 -0.24,0.22 -0.36,0.33c-0.88,0.83 -1.6,1.85 -2.19,2.9c-1.07,1.85 -2.13,4.26 -1.73,6.45c0.06,0.35 0.42,0.51 0.73,0.51c2.55,0.11 4.41,-2.41 5.45,-4.42c1.04,-2.01 1.94,-4.41 2.01,-6.7c0.02,-0.67 -0.57,-0.87 -1.13,-0.79z" fill="#9D5731" id="svg_53" opacity="0.19"/>
    <path d="m210.66,99.7c-0.05,-0.13 -0.13,-0.23 -0.25,-0.3c-0.08,-0.04 -0.16,-0.07 -0.24,-0.11c-0.14,-0.05 -0.29,-0.06 -0.44,-0.02c-0.1,0 -0.21,0.02 -0.31,0.06c-0.17,0.04 -0.33,0.12 -0.47,0.22c-0.15,0.11 -0.28,0.24 -0.39,0.38c-0.12,0.07 -0.22,0.15 -0.32,0.26c-0.1,0.11 -0.19,0.24 -0.27,0.37c-0.04,0.08 -0.08,0.17 -0.13,0.25c-0.02,0.07 -0.04,0.14 -0.04,0.22c-0.11,0.11 -0.19,0.24 -0.26,0.38c0,0.01 -0.01,0.01 -0.01,0.02c0,-0.02 0.01,-0.02 0.02,-0.04c-0.01,0.02 -0.02,0.04 -0.04,0.06c-0.1,0.12 -0.18,0.26 -0.22,0.41c0,0 0,0.01 0,0.01c0,0 0,0.01 0,0.01c0,0 0,0 0,0c-0.02,0.06 -0.04,0.13 -0.04,0.19c-0.02,0.1 0,0.18 0.05,0.26c0.03,0.1 0.09,0.16 0.17,0.22c0.11,0.07 0.23,0.1 0.37,0.1c0.43,0.02 0.82,-0.23 1.17,-0.45c0.14,-0.08 0.28,-0.17 0.41,-0.27c0.17,-0.14 0.35,-0.29 0.5,-0.45c0.22,-0.15 0.42,-0.35 0.56,-0.59c0.16,-0.27 0.21,-0.48 0.26,-0.79c0.02,-0.14 0,-0.26 -0.07,-0.39z" fill="#9D5731" id="svg_54" opacity="0.19"/>
    <path d="m213.48,118.88c-0.02,-0.07 -0.06,-0.12 -0.1,-0.16c0.03,-0.18 0.02,-0.38 -0.1,-0.54c-0.02,-0.03 -0.05,-0.07 -0.08,-0.1c-0.1,-0.13 -0.18,-0.18 -0.32,-0.26c-0.14,-0.06 -0.27,-0.1 -0.43,-0.09c-0.23,0.01 -0.46,0.04 -0.68,0.06c-0.13,0.02 -0.26,0.04 -0.39,0.06c-0.06,0.02 -0.13,0.02 -0.19,0.04c-0.19,0.03 -0.39,0.12 -0.55,0.23c-0.01,0 -0.01,0 -0.02,0c0,0.01 -0.01,0.01 -0.02,0.02c-0.02,0.02 -0.04,0.03 -0.06,0.05c-0.06,0.04 -0.12,0.1 -0.18,0.15c-0.02,0.01 -0.02,0.02 -0.03,0.03c0,0 0,0 0,0c-0.29,0.3 -0.46,0.75 -0.22,1.12c0.09,0.14 0.25,0.25 0.4,0.3c0.11,0.03 0.23,0.03 0.35,0.04c0.09,0.01 0.18,0.02 0.28,0.02c0.19,0.02 0.38,0.02 0.56,0.05c-0.03,0 -0.06,-0.01 -0.1,-0.02c0.15,0.02 0.29,0.03 0.45,-0.01c0.11,-0.02 0.25,-0.06 0.36,-0.13c0.05,-0.02 0.1,-0.06 0.16,-0.08c0.02,-0.02 0.06,-0.03 0.08,-0.05c0.29,0.05 0.62,-0.1 0.76,-0.36c0.06,-0.11 0.12,-0.26 0.08,-0.39z" fill="#9D5731" id="svg_55" opacity="0.19"/>
    <path d="m78.67,88.46c-0.41,-0.45 -1,-0.37 -1.46,-0.06c-0.04,-0.55 -0.88,-0.22 -0.92,0.22c-0.09,0.89 0.1,1.81 0.45,2.63c0.18,0.44 0.41,0.86 0.66,1.27c0.12,0.18 0.23,0.37 0.36,0.55c0.12,0.18 0.21,0.39 0.35,0.57c0.25,0.33 0.74,0.34 1.09,0.17c0.43,-0.2 0.7,-0.54 0.79,-1c0.31,-1.54 -0.26,-3.19 -1.32,-4.33z" fill="#9D5731" id="svg_56" opacity="0.19"/>
    <path d="m62.09,120.68c-0.62,-1.56 -2.23,-2.28 -3.84,-2.34c-0.49,-0.02 -0.98,0.03 -1.45,0.13c-2.13,0.09 -4.2,0.99 -5.05,2.94c-0.1,0.24 -0.05,0.66 0.22,0.79c1.41,0.72 3.09,0.95 4.65,0.93c1.69,-0.02 3.43,-0.32 4.88,-1.25c0.32,-0.21 0.75,-0.78 0.59,-1.2z" fill="#9D5731" id="svg_57" opacity="0.19"/>
    <path d="m65.21,129.4c-0.06,-0.14 -0.14,-0.26 -0.25,-0.34c-0.1,-0.08 -0.23,-0.13 -0.35,-0.17c-0.01,0 -0.02,0 -0.02,0c-0.03,-0.02 -0.05,-0.04 -0.07,-0.06c-0.21,-0.12 -0.43,-0.25 -0.67,-0.3c-0.28,-0.06 -0.58,-0.07 -0.86,0.02c-0.25,0.07 -0.43,0.16 -0.66,0.29c-0.18,0.11 -0.33,0.25 -0.49,0.39c-0.14,0.13 -0.3,0.42 -0.3,0.62c0,0.19 0.06,0.43 0.24,0.52c0.28,0.14 0.59,0.27 0.9,0.36c0.16,0.05 0.32,0.08 0.49,0.1c0.11,0.03 0.22,0.05 0.35,0.06c0,0 0.01,0 0.02,0c0,0 0,0 0,0c0.08,0.02 0.16,0.03 0.26,0.04c0.1,-0.01 0.18,-0.02 0.28,-0.03c0.15,-0.02 0.3,-0.08 0.43,-0.17c0.22,-0.13 0.44,-0.3 0.57,-0.53c0.09,-0.16 0.16,-0.33 0.18,-0.51c0,-0.01 0,-0.02 0,-0.04c0.02,-0.09 0,-0.17 -0.04,-0.25z" fill="#DA8A4A" id="svg_58"/>
    <path d="m125.29,91.44c-0.02,-0.21 -0.03,-0.32 -0.13,-0.52c-0.02,-0.03 -0.04,-0.07 -0.06,-0.11c-0.02,-0.02 -0.04,-0.05 -0.06,-0.07c0.01,-0.83 -0.18,-1.59 -0.43,-2.37c-0.35,-1.08 -1.9,-0.51 -2.3,0.23c-0.43,0.79 -0.6,1.77 -0.29,2.62c0.03,0.1 0.07,0.2 0.11,0.29c-0.02,0.24 -0.02,0.48 0.02,0.72c0.02,0.23 0.09,0.46 0.18,0.67c0.03,0.09 0.08,0.17 0.12,0.26c-0.09,-0.18 0.04,0.1 0.07,0.16c0.06,0.12 0.13,0.24 0.21,0.35c0.44,0.61 1.39,0.1 1.69,-0.38c0.21,-0.33 0.33,-0.71 0.43,-1.08c0.06,-0.06 0.13,-0.11 0.18,-0.18c0.12,-0.15 0.27,-0.39 0.26,-0.59z" fill="#9D5731" id="svg_59" opacity="0.19"/>
    <path d="m148.9,84.1c-0.6,-0.68 -1.86,-0.26 -2.23,0.49c-0.86,1.76 -1.18,3.75 -1.18,5.69c-0.01,1.77 0.2,3.7 1.11,5.26c0.14,0.49 0.33,0.95 0.57,1.4c0.19,0.37 0.78,0.35 1.1,0.24c0.47,-0.15 0.79,-0.48 1,-0.93c0.88,-1.89 1.12,-4.14 1.12,-6.21c-0.01,-1.93 -0.15,-4.39 -1.48,-5.93z" fill="#9D5731" id="svg_60" opacity="0.19"/>
   </g>
   <g id="svg_61">
    <path d="m110.92,13.52c-4.66,-4.57 -11.75,-1.24 -16.59,1.5c-4.43,2.82 -4.56,10.1 0.35,12.51c6.82,3.92 21.98,-6.44 16.25,-14.01z" fill="#FCB65C" id="svg_62"/>
    <path d="m120.81,10.72c-0.17,-0.75 -0.87,-1.32 -1.6,-1.5c-1.04,-0.25 -2.18,0.13 -2.89,0.93c-0.06,0.07 -0.13,0.14 -0.18,0.22c-0.75,0.31 -1.36,0.92 -1.44,1.77c-0.04,0.35 0.06,0.76 0.27,1.05c0.18,0.26 0.5,0.4 0.79,0.49c0.65,0.19 1.37,0.15 2.03,0.06c0.67,-0.09 1.36,-0.33 1.93,-0.68c0.76,-0.47 1.28,-1.45 1.08,-2.35z" fill="#FCB65C" id="svg_63"/>
    <path d="m49.64,37.59c-5.18,-0.94 -14.4,2.86 -14.18,8.91c3.63,7.67 22.72,-3.47 14.18,-8.91z" fill="#FCB65C" id="svg_64"/>
    <path d="m56.34,33.86c-0.1,-0.1 -0.2,-0.22 -0.33,-0.3c-0.02,-0.02 -0.04,-0.02 -0.07,-0.04c-0.09,-0.05 -0.19,-0.1 -0.3,-0.14c-0.23,-0.08 -0.47,-0.06 -0.71,-0.02c-0.08,0.01 -0.15,0.04 -0.22,0.06c-0.07,0.02 -0.14,0.05 -0.22,0.08c-0.14,0.06 -0.3,0.14 -0.42,0.24c-0.14,0.1 -0.26,0.22 -0.39,0.34c-0.04,0.04 -0.08,0.08 -0.12,0.13c-0.01,0.01 -0.02,0.02 -0.02,0.02c-0.19,0.22 -0.18,0.22 -0.28,0.43c-0.06,0.11 -0.1,0.22 -0.11,0.35c-0.05,0.15 -0.06,0.3 -0.02,0.46c0,0.01 0.01,0.02 0.01,0.02c0,0.02 0,0.03 0.01,0.06c0.02,0.06 0.05,0.11 0.08,0.17c0.08,0.11 0.18,0.18 0.31,0.22c0.19,0.07 0.39,0.12 0.59,0.14c0.23,0.01 0.46,-0.04 0.67,-0.1c0.09,-0.03 0.18,-0.06 0.26,-0.1c0.14,-0.07 0.27,-0.15 0.41,-0.24c0.12,-0.07 0.23,-0.17 0.35,-0.26c0.14,-0.09 0.26,-0.21 0.36,-0.35c0.1,-0.12 0.18,-0.25 0.22,-0.4c0.02,-0.09 0.04,-0.18 0.06,-0.27c0.02,-0.18 -0.02,-0.34 -0.13,-0.49z" fill="#FCB65C" id="svg_65"/>
    <g id="svg_66">
     <path d="m19.66,77.58c0.02,0 0.02,-0.01 0.03,-0.01c0.02,0 0.02,-0.01 0.03,-0.01c0,0 0,0 0,0c-0.02,0 -0.03,0.01 -0.05,0.01c-0.01,0 -0.01,0.01 -0.02,0.01z" fill="#FCB65C" id="svg_67"/>
     <path d="m22.47,71.94c-1.52,-0.76 -3.2,-0.67 -4.64,0.26c-0.71,0.47 -1.28,1.08 -1.77,1.77c-0.07,0.09 -0.15,0.17 -0.22,0.26c-1.1,1.37 -1.82,3.03 -2.24,4.73c-0.4,1.68 -0.63,3.48 -0.25,5.19c0.31,1.38 1.16,2.72 2.64,3.03c2.43,0.51 4.31,-1.6 5.53,-3.4c1.12,-1.65 2.14,-3.58 2.68,-5.5c0.61,-2.21 0.62,-5.16 -1.74,-6.34z" fill="#FCB65C" id="svg_68"/>
    </g>
    <path d="m26.24,113.73c-1.96,-4.09 -7.77,-5.25 -10.17,-0.98c-0.87,2.79 0.95,5.55 2.44,7.89c6.06,8.09 12.69,0.24 7.73,-6.91z" fill="#FCB65C" id="svg_69"/>
    <g id="svg_70">
     <path d="m214.2,31.69c-1.21,-1.26 -2.94,-1.93 -4.63,-2.21c-1.85,-0.3 -3.85,-0.23 -5.54,0.69c-0.65,0.35 -1.28,0.85 -1.64,1.51c-0.07,0.06 -0.14,0.12 -0.2,0.19c-0.99,1.12 -1.16,2.75 -0.14,3.91c0.76,0.87 1.83,1.4 2.91,1.76c2.36,0.8 5.22,0.99 7.58,0.13c1.12,-0.41 2.18,-1.21 2.6,-2.36c0.45,-1.26 -0.05,-2.68 -0.94,-3.61z" fill="#FCB65C" id="svg_71"/>
     <path d="m204.55,32.17c0,0 0,0 0,0c-0.01,0 -0.01,0.01 -0.01,0.01c0,0 0,0 0,0c0,0 0,0 0,-0.01c0.01,0 0.01,0 0.01,0z" fill="#FCB65C" id="svg_72"/>
    </g>
    <g id="svg_73">
     <path d="m247.52,68.09c-0.54,-1.06 -1.54,-1.83 -2.59,-2.34c-1.15,-0.55 -2.46,-0.89 -3.74,-0.62c-0.49,0.1 -1,0.31 -1.36,0.67c-0.06,0.02 -0.11,0.06 -0.17,0.09c-0.87,0.54 -1.29,1.56 -0.85,2.52c0.33,0.71 0.93,1.26 1.56,1.71c1.39,0.98 3.21,1.65 4.93,1.55c0.8,-0.06 1.65,-0.37 2.14,-1.04c0.54,-0.73 0.49,-1.75 0.09,-2.53z" fill="#FCB65C" id="svg_74"/>
    </g>
   </g>
  </g>
  <text fill="#7f3f00" font-family="Cursive" font-size="27" id="svg_75" stroke="#000000" stroke-width="0" text-anchor="middle" x="135" xml:space="preserve" y="171">Ciastkarnia na rogu</text>
 </g>
</svg>